<?xml version="1.0" encoding="UTF-8" standalone="no"?>
<svg
   xmlns:dc="http://purl.org/dc/elements/1.1/"
   xmlns:cc="http://creativecommons.org/ns#"
   xmlns:rdf="http://www.w3.org/1999/02/22-rdf-syntax-ns#"
   xmlns:svg="http://www.w3.org/2000/svg"
   xmlns="http://www.w3.org/2000/svg"
   xmlns:xlink="http://www.w3.org/1999/xlink"
   xmlns:sodipodi="http://sodipodi.sourceforge.net/DTD/sodipodi-0.dtd"
   xmlns:inkscape="http://www.inkscape.org/namespaces/inkscape"
   version="1.1"
   id="svg908"
   width="5184"
   height="3456"
   viewBox="0 0 5184 3456"
   sodipodi:docname="farne-islands.svg"
   inkscape:version="1.0 (4035a4f, 2020-05-01)">
  <metadata
     id="metadata914">
    <rdf:RDF>
      <cc:Work
         rdf:about="">
        <dc:format>image/svg+xml</dc:format>
        <dc:type
           rdf:resource="http://purl.org/dc/dcmitype/StillImage" />
        <dc:title />
      </cc:Work>
    </rdf:RDF>
  </metadata>
  <defs
     id="defs912">
    <linearGradient
       id="linearGradient986"
       inkscape:collect="always">
      <stop
         id="stop982"
         offset="0"
         style="stop-color:#4f8c8c;stop-opacity:1;" />
      <stop
         id="stop984"
         offset="1"
         style="stop-color:#4f8c8c;stop-opacity:0;" />
    </linearGradient>
    <linearGradient
       gradientUnits="userSpaceOnUse"
       y2="-144.88077"
       x2="1573.1332"
       y1="3868.7419"
       x1="878.93915"
       id="linearGradient988"
       xlink:href="#linearGradient986"
       inkscape:collect="always" />
  </defs>
  <sodipodi:namedview
     inkscape:snap-global="false"
     inkscape:document-rotation="0"
     pagecolor="#ffffff"
     bordercolor="#666666"
     borderopacity="1"
     objecttolerance="10"
     gridtolerance="10"
     guidetolerance="10"
     inkscape:pageopacity="0"
     inkscape:pageshadow="2"
     inkscape:window-width="1440"
     inkscape:window-height="698"
     id="namedview910"
     showgrid="false"
     inkscape:zoom="0.12268519"
     inkscape:cx="2583.8491"
     inkscape:cy="2192.6038"
     inkscape:window-x="0"
     inkscape:window-y="25"
     inkscape:window-maximized="0"
     inkscape:current-layer="g916" />
  <g
     inkscape:groupmode="layer"
     inkscape:label="Image"
     id="g916">
    <path
       d="m 4351.3256,3433.4417 c 2.4375,-0.9516 2.3114,-1.2168 -1.5218,-3.199 -3.9651,-2.0504 -4.2139,-2.0304 -4.8462,0.3874 -1.06,4.0536 0.9327,4.9334 6.368,2.8116 z m -14.0116,-3.8537 c -0.017,-1.9431 -0.199,-1.9783 -1.3129,-0.2547 -1.6875,2.6112 -1.6875,4.3763 0,3.3334 0.7333,-0.4532 1.3241,-1.8387 1.3129,-3.0787 z m 5.3538,0.3333 c 0,-3.8436 -1.9759,-3.3738 -3.0476,0.7246 -0.4586,1.7536 -0.051,2.6874 1.1724,2.6874 1.1228,0 1.8752,-1.3689 1.8752,-3.412 z m 26.6666,0.2419 c 0,-0.2768 -0.9,-1.2503 -2,-2.1632 -1.638,-1.3595 -2,-1.2683 -2,0.5035 0,1.1897 0.9,2.1632 2,2.1632 1.1,0 2,-0.2266 2,-0.5035 z m 5.8618,-4.2835 c 1.6145,-4.2076 -1.8887,-6.0433 -5.2046,-2.7273 -1.3577,1.3576 -1.4349,2.2032 -0.3048,3.3333 2.1428,2.1428 4.5564,1.8772 5.5094,-0.606 z m -46.0099,-18.1565 c -0.8664,-1.6189 -1.5276,-4.6189 -1.4695,-6.6667 0.124,-4.3382 -1.0858,-4.6992 -4.2034,-1.2542 -2.1067,2.3278 -2.0234,2.7054 1.4601,6.6146 4.3203,4.8483 6.4643,5.5131 4.2128,1.3063 z m 4.8312,-4.9597 c -0.5033,-2.979 -1.5575,-5.8131 -2.3424,-6.2983 -0.9584,-0.5924 -1.0984,0.172 -0.426,2.3263 0.5507,1.7646 1.3173,4.8864 1.7037,6.937 1.1011,5.8448 2.0884,3.0951 1.0647,-2.965 z m -514.9491,-9.8844 c 0.3772,-0.9832 0.1507,-2.6332 -0.5036,-3.6667 -0.8657,-1.3676 -1.195,-0.8809 -1.21,1.7876 -0.023,3.9816 0.6316,4.6985 1.7136,1.8791 z m 557.0224,-26.2124 c 0.4863,-0.3667 1.3516,-2.162 1.923,-3.9896 0.9729,-3.1124 0.879,-3.1968 -1.4818,-1.3334 -4.7528,3.7518 -5.3162,4.677 -8.9262,14.6563 -5.26,14.5403 -4.4228,15.6573 1.9986,2.6667 3.0812,-6.2334 6.0002,-11.6334 6.4864,-12 z m -68.4508,19.1944 c -0.443,-0.4431 -1.593,-0.4904 -2.5556,-0.1054 -1.0636,0.4256 -0.7477,0.7416 0.8056,0.8056 1.4055,0.057 2.1931,-0.2573 1.75,-0.7004 z M 4318.4486,3384 c 0.515,-1.5779 0.2553,-1.6752 -1.2307,-0.4611 -1.0359,0.8464 -3.3835,1.8392 -5.2168,2.2063 -2.3188,0.4641 -1.9443,0.6045 1.2307,0.4611 2.7368,-0.124 4.8253,-1.007 5.2168,-2.2063 z m -464.1902,-44.9747 c -0.3381,-1.2972 -0.6369,-0.5586 -0.6641,1.6414 -0.027,2.2 0.2495,3.2614 0.6147,2.3586 0.3653,-0.9026 0.3874,-2.7026 0.049,-4 z m -71.5906,-3.8474 c 0,-0.2812 -1.5,-0.5112 -3.3334,-0.5112 -1.8333,0 -3.3333,0.5168 -3.3333,1.1484 0,0.6317 1.5,0.8617 3.3333,0.5113 1.8334,-0.3505 3.3334,-0.8673 3.3334,-1.1485 z m 60.6932,-3.1507 c -0.2636,-3.5784 -2.0266,-5.1485 -2.0266,-1.8049 0,2.1969 1.0111,4.4444 1.9994,4.4444 0.1213,0 0.1341,-1.1878 0.027,-2.6395 z m 153.5509,-0.2772 c -0.4256,-1.0636 -0.7416,-0.7477 -0.8056,0.8056 -0.057,1.4055 0.2573,2.1931 0.7004,1.75 0.4431,-0.4431 0.4904,-1.5931 0.1053,-2.5556 z m 404.4225,-3.0047 c 0,-1.4073 -2.5588,-1.9985 -3.3198,-0.767 -0.4607,0.7453 0.097,1.355 1.2412,1.355 1.1432,0 2.0786,-0.2645 2.0786,-0.588 z m -550.4222,-6.3676 c -0.9567,-0.9566 -1.5778,-1.0354 -1.5778,-0.2 0,1.7798 1.5768,3.3566 2.4667,2.4667 0.3789,-0.3788 -0.021,-1.3988 -0.8889,-2.2667 z m -2.9111,0.289 c 0,-0.7334 -0.9355,-1.3334 -2.0787,-1.3334 -1.1433,0 -1.7078,0.6 -1.2546,1.3334 0.4532,0.7333 1.3886,1.3333 2.0786,1.3333 0.6902,0 1.2547,-0.6 1.2547,-1.3333 z m 72,-4.7454 c 0,-1.9352 -0.5771,-3.0553 -1.3333,-2.588 -0.7334,0.4532 -1.3334,1.9887 -1.3334,3.412 0,1.4235 0.6,2.588 1.3334,2.588 0.7333,0 1.3333,-1.5354 1.3333,-3.412 z m 1219.9647,-316.522 c 1.7118,-3.1985 0.5837,-6.2782 -2.6054,-7.1122 -2.0925,-0.5471 -2.5232,0.3029 -2.9078,5.739 -0.4034,5.7004 -0.2058,6.2496 1.8513,5.147 1.2665,-0.6788 2.9144,-2.377 3.6619,-3.7738 z m -121.298,-178.7326 c 0,-0.7334 -0.6,-1.3334 -1.3334,-1.3334 -0.7333,0 -1.3333,0.6 -1.3333,1.3334 0,0.7333 0.6,1.3333 1.3333,1.3333 0.7334,0 1.3334,-0.6 1.3334,-1.3333 z m 72.6938,-39.2022 c 1.8422,-6.1208 1.8398,-6.1312 -1.4242,-6.1312 -2.9676,0 -3.2696,0.5338 -3.2696,5.7778 0,5.3117 0.9968,8.3366 2.3132,7.0201 0.2945,-0.2945 1.3658,-3.2945 2.3806,-6.6667 z m 20.2676,-3.7978 c 0.036,-4.5834 -0.5076,-9.4218 -1.2074,-10.7519 -0.794,-1.5093 -0.8019,-3.0132 -0.021,-4 2.2199,-2.8052 2.7623,-14.6511 0.927,-20.242 -0.974,-2.9671 -1.5988,-9.6079 -1.406,-14.9463 0.3745,-10.3722 0.087,-10.5784 -6.6382,-4.749 -8.4861,7.3569 -16.6158,27.4353 -16.6158,41.0374 0,6.2635 1.1718,7.3927 4.0604,3.9123 3.0532,-3.6788 6.0332,-4.5784 10.0946,-3.0473 3.5907,1.3537 3.8155,1.8636 3.3991,7.7118 -0.3599,5.0539 0.1548,6.9472 2.6667,9.8112 1.7118,1.9519 3.4642,3.5598 3.8941,3.573 0.43,0.013 0.8109,-3.7259 0.8465,-8.3092 z m 2.3719,-81 c 0.4532,-0.7334 -0.1468,-1.3334 -1.3333,-1.3334 -1.1866,0 -1.7866,0.6 -1.3334,1.3334 0.4532,0.7333 1.0532,1.3333 1.3334,1.3333 0.2801,0 0.8801,-0.6 1.3333,-1.3333 z M 2172.88,3440.3435 c -0.3866,-0.6256 -0.2445,-1.8791 0.3156,-2.7856 1.2262,-1.9839 5.799,-0.5391 5.0847,1.6064 -0.6243,1.875 -4.4535,2.7112 -5.4003,1.1792 z m 601.7878,-19.7187 c 0,-1.1229 0.9258,-2.3971 2.0574,-2.8313 3.014,-1.1566 3.1722,-0.1187 0.387,2.5398 -2.0682,1.9743 -2.4444,2.0191 -2.4444,0.2915 z m 166.378,-16.2915 c -1.1195,-1.2833 -2.7152,-3.6489 -3.546,-5.2569 -1.1288,-2.1845 -2.9418,-3.0272 -7.1714,-3.3333 l -5.6606,-0.4098 4.6666,-2.995 c 3.1568,-2.026 6.7158,-2.9966 11,-3 6.4176,0 8.7411,2.2817 3.6667,3.6088 -1.4667,0.3834 -2.6667,0.9512 -2.6667,1.2616 0,0.3102 1.2,2.9164 2.6667,5.7913 1.4667,2.8749 2.6667,5.5511 2.6667,5.9469 0,1.6278 -3.7279,0.5579 -5.622,-1.6136 z M 592.0011,3386 c 3.38289,-3.6009 6.66667,-4.3891 6.66667,-1.6 0,2.7315 -2.9007,4.9333 -6.49908,4.9333 h -3.2991 z m 3154.6667,-47.3333 c 1.1,-0.711 2.9,-1.2595 4,-1.2192 1.3188,0.048 1.0916,0.4636 -0.6667,1.2192 -3.6655,1.575 -5.7707,1.575 -3.3333,0 z m 69.8453,-12.5888 c -0.4056,-1.0572 -0.5368,-2.9191 -0.2915,-4.1376 0.3007,-1.4927 0.9522,-0.8656 1.997,1.9221 0.8961,2.3907 1.0192,4.1376 0.2916,4.1376 -0.6927,0 -1.5914,-0.8649 -1.9971,-1.9221 z m -20.512,-0.7446 c 0,-0.7333 0.9,-1.3333 2,-1.3333 1.1,0 2,0.6 2,1.3333 0,0.7334 -0.9,1.3334 -2,1.3334 -1.1,0 -2,-0.6 -2,-1.3334 z m 31.3333,-2.6666 c -0.4532,-0.7334 0.1468,-1.3334 1.3334,-1.3334 1.1865,0 1.7865,0.6 1.3333,1.3334 -0.4532,0.7333 -1.0532,1.3333 -1.3333,1.3333 -0.2802,0 -0.8802,-0.6 -1.3334,-1.3333 z m -9.3473,-4.0227 c -0.452,-0.7312 0.1423,-1.6993 1.3203,-2.1515 2.8708,-1.1016 3.5053,-0.207 1.2964,1.8275 -1.1406,1.0505 -2.0947,1.1687 -2.6167,0.324 z m -9.986,-1.8347 c 0,-0.2882 0.9312,-0.8813 2.0692,-1.3181 1.1867,-0.4553 1.7219,-0.2317 1.2547,0.5241 -0.783,1.267 -3.3239,1.8739 -3.3239,0.794 z m 15.5556,-3.0316 c -1.5343,-1.5341 -0.9711,-3.111 1.1111,-3.111 1.1,0 2,0.9 2,2 0,2.0821 -1.577,2.6453 -3.1111,1.111 z M 3803.3344,3308 c -0.4532,-0.7333 -0.1886,-1.3333 0.588,-1.3333 0.7766,0 1.412,0.6 1.412,1.3333 0,0.7333 -0.2645,1.3333 -0.588,1.3333 -0.3233,0 -0.9588,-0.6 -1.412,-1.3333 z m 54,-10.6667 c 0,-0.7333 0.6,-1.3333 1.3334,-1.3333 0.7333,0 1.3333,0.6 1.3333,1.3333 0,0.7334 -0.6,1.3334 -1.3333,1.3334 -0.7334,0 -1.3334,-0.6 -1.3334,-1.3334 z m -101.005,-36.24 c 0.2798,-3.5064 -0.2166,-4.3766 -2.8692,-5.0304 -3.0388,-0.7488 -3.0864,-0.9117 -0.9048,-3.0933 1.2665,-1.2667 2.7933,-2.3029 3.3928,-2.3029 0.5994,0 1.0066,-1.05 0.9048,-2.3334 -0.141,-1.7756 1.0101,-2.4322 4.8148,-2.7472 2.75,-0.2276 5,0.1475 5,0.8334 0,0.686 1.8,1.6072 4,2.0472 4.9282,0.9856 5.2348,4.2677 0.5093,5.4537 -1.9199,0.4819 -3.1599,1.2068 -2.7556,1.6111 1.2752,1.2752 -7.4003,9.8018 -9.9731,9.8018 -1.9434,0 -2.3866,-0.8868 -2.119,-4.24 z m -1109.5739,-2.9856 c -2.2788,-1.2622 -4.2972,-1.4312 -6.7757,-0.5672 -2.266,0.79 -4.856,0.7266 -7.2327,-0.177 -3.076,-1.1695 -3.4248,-1.7423 -2.0609,-3.3856 1.3036,-1.5708 1.2854,-2.4068 -0.088,-4.0618 -1.5018,-1.8094 -1.3038,-1.9965 1.5034,-1.4212 1.778,0.3646 5.2384,0.9984 7.6899,1.4087 2.5837,0.4324 6.0861,2.4899 8.3333,4.8955 5.3642,5.7424 4.9279,6.7968 -1.3693,3.3086 z m 386.0456,-41.5744 c -0.4745,-1.2365 -0.5628,-2.5484 -0.1961,-2.915 0.3666,-0.3667 1.0549,0.3452 1.5294,1.5817 0.4746,1.2365 0.5628,2.5484 0.1962,2.9151 -0.3667,0.3666 -1.055,-0.3452 -1.5295,-1.5818 z m 80.5333,-8.35 c 0,-0.6325 1.8364,-3.4608 4.081,-6.2852 2.4056,-3.027 3.8205,-6.1306 3.4468,-7.5602 -0.4099,-1.5672 0.5381,-3.1932 2.68,-4.5966 1.8228,-1.1944 4.5205,-4.9248 5.9948,-8.2897 1.4744,-3.3651 3.5222,-8.0683 4.5508,-10.4516 1.8501,-4.2869 4.5921,-5.888 4.5669,-2.6667 -0.013,0.9167 -1.5071,4.8763 -3.3333,8.7991 -4.0298,8.6564 -4.1384,11.0485 -0.6019,13.2572 3.6795,2.2977 2.1053,4.2771 -3.4015,4.2771 -3.3448,0 -5.1509,0.8916 -6.9213,3.4166 -6.8412,9.757 -11.0623,13.6108 -11.0623,10.1 z m 394.6667,-6.7713 c 0,-2.89 0.6,-5.6255 1.3333,-6.0787 0.7334,-0.4532 1.3334,-1.9244 1.3334,-3.2693 0,-1.3449 0.9392,-2.8057 2.0872,-3.2463 1.5928,-0.6112 1.891,-0.1832 1.2594,1.807 -0.4552,1.4344 -0.2365,3.7125 0.486,5.0626 1.0143,1.8952 0.7272,2.821 -1.2594,4.0616 -1.4154,0.8839 -2.5732,2.8019 -2.5732,4.2624 0,1.4604 -0.6,2.6554 -1.3334,2.6554 -0.7333,0 -1.3333,-2.3646 -1.3333,-5.2547 z m -180,-11.6604 c 0,-0.6053 -1.8,-1.8973 -4,-2.8712 -6.6207,-2.9307 -4.5069,-4.0129 3.3305,-1.7055 4.0319,1.1872 7.1348,2.7584 6.8956,3.4918 -0.5321,1.6309 -6.2261,2.6232 -6.2261,1.0849 z M 386.67885,3173.3684 c -1.09391,-0.6916 -3.34258,-0.9177 -4.99703,-0.5024 -1.65445,0.4152 -4.05943,0.3473 -5.3444,-0.1508 -2.17951,-0.8448 -2.16279,-1.0333 0.2492,-2.8085 2.54563,-1.8735 2.54048,-1.9638 -0.33333,-5.8507 -4.19387,-5.6725 -3.59515,-6.3669 1.33426,-1.5476 2.67687,2.6172 5.61259,4.1583 7.92131,4.1583 3.84613,0 6.12231,1.9138 3.90556,3.2838 -0.71328,0.4408 -0.95887,1.6823 -0.54577,2.7588 0.8728,2.2746 0.52901,2.378 -2.1898,0.6591 z m 1089.65555,-11.6889 c -5.6281,-0.3198 -8.3333,-1.0266 -8.3333,-2.1774 0,-2.5266 5.4737,-7.1738 9.6792,-8.2176 5.2545,-1.3042 5.7369,-3.0033 2.0043,-7.0596 -5.6294,-6.1172 -7.6835,-9.9996 -7.6835,-14.5216 0,-3.2938 0.5819,-4.37 2.3629,-4.37 3.1967,0 11.8918,7.3358 14.3658,12.12 2.8681,5.5463 6.5405,4.9847 10.7222,-1.6396 1.9163,-3.0357 4.0826,-7.2357 4.8138,-9.3333 1.5358,-4.4059 4.3638,-4.9553 6.355,-1.2347 2.0759,3.8788 1.6831,6.7559 -1.9236,14.0876 -5.038,10.2416 -4.6029,12.1024 3.3039,14.1288 3.6667,0.9398 6.6667,2.1079 6.6667,2.5958 0,0.4878 -4.35,2.1762 -9.6667,3.7521 -9.3601,2.7743 -13.036,2.9847 -32.6667,1.8695 z m 1285.7431,-19.7886 c -2.1628,-1.5814 -2.2299,-1.8909 -0.4099,-1.8909 1.1968,0 2.5716,0.6399 3.055,1.422 1.4133,2.2867 0.1477,2.5111 -2.6451,0.4689 z m 657.7069,-27.8982 c -1.1372,-1.9411 -2.7436,-13.9927 -1.865,-13.9927 1.3634,0 5.8728,5.0977 5.1493,5.8212 -0.3905,0.3905 -1.1144,2.6873 -1.6087,5.1039 -0.4942,2.4164 -1.2482,3.7969 -1.6756,3.0676 z m 331.4782,-8.7755 c -1.1442,-1.8513 1.392,-4.4615 3.2308,-3.3249 1.5312,0.9462 0.5508,4.7744 -1.223,4.7744 -0.6116,0 -1.515,-0.6523 -2.0078,-1.4495 z m -238.2507,-8.5703 c 0.8073,-4.2232 2.9892,-5.7261 2.9892,-2.0589 0,1.5099 0.6,2.7453 1.3333,2.7453 0.7334,0 1.3334,0.6 1.3334,1.3334 0,0.7333 -1.4168,1.3333 -3.1484,1.3333 -2.6444,0 -3.0459,-0.5369 -2.5075,-3.3531 z m -2495.5067,-2.2445 c -2.0339,-6.3281 -2.1939,-23.9555 -0.2504,-27.5869 0.896,-1.6742 1.3278,-3.3451 0.9597,-3.7132 -0.3682,-0.3682 -4.3168,-1.0002 -8.7747,-1.4044 -4.458,-0.4042 -8.1054,-1.1983 -8.1054,-1.7646 0,-3.1404 8.601,-7.7985 17.2553,-9.3452 8.5703,-1.5316 10.4046,-1.4162 21.7195,1.3655 13.4706,3.3117 16.7319,5.0088 12.0022,6.2456 -3.3389,0.8732 -3.6395,2.0715 -1.5152,6.0408 1.3956,2.6077 1.1995,2.6925 -4.3334,1.8744 -12.7169,-1.8803 -13.4441,-1.7467 -16.7112,3.0683 -2.541,3.7448 -2.9419,5.68 -2.3479,11.3333 0.5826,5.5455 0.1454,7.7931 -2.3432,12.0471 -3.9752,6.795 -5.8183,7.2438 -7.5553,1.8393 z m 2417.183,-24.7357 c 0.013,-0.55 0.6112,-1.9 1.3333,-3 1.1427,-1.7406 1.4745,-1.7488 2.5583,-0.064 0.6849,1.0649 0.9496,2.4149 0.588,3 -0.833,1.3476 -4.5068,1.3997 -4.4796,0.064 z m 49.3129,-81.984 c 0,-1.1352 0.9859,-2.4424 2.1908,-2.9047 3.2832,-1.26 3.4899,-0.1723 0.484,2.548 -2.2608,2.046 -2.6748,2.1012 -2.6748,0.3567 z m -306.5173,-9.5 c -1.5967,-1.9262 -1.5226,-2.5954 0.54,-4.8744 1.3148,-1.4528 3.1476,-2.6416 4.0729,-2.6416 0.9252,0 1.9223,-0.7204 2.2159,-1.601 1.1944,-3.5834 1.8778,1.2511 0.7598,5.3759 -0.9622,3.5509 -1.5692,4.1384 -3.0261,2.9292 -1.4115,-1.1715 -1.9227,-0.9987 -2.2671,0.766 -0.4153,2.1277 -0.5672,2.1308 -2.2954,0.045 z m 309.184,1.0645 c 0,-1.684 6.0529,-14.9179 9.0004,-19.6781 2.1237,-3.4299 5.3377,-6.1084 9.8237,-8.1868 3.6671,-1.699 7.4116,-4.1067 8.3211,-5.3504 0.9094,-1.2438 4.9006,-3.5598 8.8696,-5.1467 5.4649,-2.1851 8.4341,-4.5031 12.236,-9.5519 2.7609,-3.6666 6.879,-7.4368 9.1514,-8.3781 3.6568,-1.5147 32.9408,-8.3207 35.5751,-8.2681 2.2488,0.045 -3.3616,2.7209 -9.644,4.6001 -3.6667,1.0967 -8.8417,3.3557 -11.5,5.02 -4.8495,3.0363 -15.8333,14.8408 -15.8333,17.0164 0,1.7179 6.959,6.3643 11.0813,7.3989 4.3096,1.0818 4.5707,2.6563 0.7772,4.6866 -1.9649,1.0516 -4.4675,1.111 -8.3333,0.198 -7.3644,-1.7392 -27.1388,-0.089 -32.1919,2.6852 -5.7917,3.1806 -15.4952,13.1081 -16.9825,17.3744 -0.7711,2.2114 -2.2538,3.6666 -3.7359,3.6666 -1.3516,0 -2.8284,0.6 -3.2816,1.3334 -0.8761,1.4176 -3.3333,1.8456 -3.3333,0.5805 z m -316.844,-18.9247 c -5.044,-4.1193 -11.0531,-19.7544 -11.1415,-28.9892 -0.095,-9.8788 -0.8533,-10.9385 -8.4627,-11.8173 -3.7869,-0.4372 -9.5266,-1.2573 -12.755,-1.8221 l -5.87,-1.0272 5.3089,-4.6667 c 2.9199,-2.5667 6.4279,-5.3109 7.7956,-6.0984 2.2757,-1.3103 2.3275,-1.8196 0.6095,-6 -1.0326,-2.5125 -5.6152,-8.1683 -10.1838,-12.5683 -9.3345,-8.9901 -18.1009,-23.858 -16.8616,-28.5973 0.4787,-1.83 1.463,-2.6152 2.6888,-2.1448 1.0636,0.4081 3.3848,0.7421 5.1582,0.7421 1.943,0 3.2242,0.7763 3.2242,1.9536 0,2.7783 7.6474,11.1288 12.4803,13.6282 2.2465,1.1616 8.7905,6.8754 14.5424,12.6973 5.7519,5.8219 11.7748,10.7599 13.3843,10.9733 7.6316,1.012 11.3204,4.1064 16.57,13.9 1.9538,3.6452 2.069,4.2939 0.6897,3.8832 -0.55,-0.1637 -2.8715,0.548 -5.1589,1.5816 l -4.1588,1.8794 0.3533,18.4933 c 0.2645,13.8375 0.8409,19.062 2.2895,20.7517 3.7045,4.3215 3.4617,4.9226 -2.1198,5.2476 -3.6757,0.214 -6.4952,-0.4586 -8.3826,-2 z m -1737.0987,-21.4764 -7.9425,-0.8461 5.5756,-5.8484 c 3.0666,-3.2165 5.2554,-6.3665 4.864,-7 -1.2251,-1.9821 -7.0242,-1.2624 -12.2062,1.5151 -5.3265,2.8548 -8.3482,3.3929 -8.3482,1.4866 0,-3.8602 15.4892,-8.1205 29.6062,-8.1432 6.7923,-0.013 6.7296,0.083 8.0342,-12.0101 0.3033,-2.8116 2.7597,-4.5275 15.6929,-10.9623 8.4333,-4.196 16.9833,-8.2148 19,-8.9306 6.3027,-2.2375 4.0052,0.3789 -4.0039,4.5596 -8.3722,4.3704 -9.8116,6.8906 -11.5017,20.1396 l -0.8681,6.8061 7.0038,-0.6729 7.004,-0.6731 -5.5982,5.3788 c -3.0791,2.9584 -9.7684,7.5369 -14.8654,10.1745 -10.1121,5.2331 -17.8685,6.4728 -31.4465,5.0264 z m 3280.6093,-77.5128 c -1.8333,-1.434 -4.2381,-2.6206 -5.344,-2.637 -2.5588,-0.037 -13.9786,-6.0082 -19.7392,-10.3199 -4.0749,-3.05 -4.5988,-3.1409 -6.7717,-1.1744 -5.9857,5.4171 -7.0752,-1.3724 -1.3696,-8.5353 1.4604,-1.8334 3.0033,-4.3834 3.4287,-5.6667 0.9317,-2.8105 1.5273,-2.8519 7.2997,-0.5065 5.94,2.4134 7.8295,1.521 7.8295,-3.6979 0,-4.5097 6.8978,-14.0651 12.2028,-16.9041 5.7188,-3.0607 8.9458,6.6382 4.3784,13.1592 -1.147,1.6374 -1.7255,4.1113 -1.2855,5.4973 0.45,1.418 -0.4613,4.9395 -2.0841,8.0529 l -2.884,5.533 3.1696,3.3828 c 1.7432,1.8605 5.1194,4.1998 7.5028,5.1984 2.9648,1.2421 4.3333,2.7126 4.3333,4.6561 0,2.5033 -0.5147,2.7323 -4.3333,1.9276 -3.5423,-0.7464 -4.0291,-0.5953 -2.6667,0.8273 3.9741,4.1502 1.2445,5.0488 -3.6667,1.2072 z m -1600,-10.6008 c 0,-1.5894 0.5488,-2.5508 1.2195,-2.1362 0.6707,0.4145 1.4207,0.2229 1.6667,-0.4258 0.2574,-0.6789 1.8162,-0.6652 3.6732,0.032 3.7108,1.3939 2.5769,3.1632 -2.8927,4.514 -3.1507,0.7782 -3.6667,0.499 -3.6667,-1.9842 z m -402.6666,-87.1998 c 0,-0.4387 1.7956,-1.7262 3.9902,-2.861 4.2426,-2.194 17.744,-19.2634 19.3015,-24.4024 1.0963,-3.6172 -1.1948,-6.936 -4.7883,-6.936 -3.0373,0 -3.0889,-0.5336 -0.442,-4.5733 1.7731,-2.706 3.1252,-3.1412 9.6667,-3.1105 10.2361,0.048 20.8337,-3.5626 22.7407,-7.7476 0.9794,-2.1498 2.5756,-3.2352 4.7572,-3.2352 7.1066,0 5.8046,6.7641 -1.9616,10.1905 -2.8954,1.2775 -5.2644,3.0109 -5.2644,3.852 0,2.1869 6.0064,4.6241 11.3961,4.6241 5.0293,0 6.1833,1.9858 1.9372,3.3334 -1.4667,0.4654 -2.6667,1.6921 -2.6667,2.7257 0,1.0337 -1.5153,2.8724 -3.3674,4.0859 -2.341,1.5338 -3.1264,2.9657 -2.5768,4.6974 0.9081,2.8611 -1.9202,3.4266 -4.4558,0.891 -2.2685,-2.2686 -1.9829,-3.73 0.7334,-3.7538 1.9518,-0.017 2.0136,-0.2226 0.378,-1.257 -1.2084,-0.7644 -2.538,-0.753 -3.4812,0.029 -0.9863,0.8184 -3.2274,0.5556 -6.3354,-0.7429 -6.1582,-2.5732 -5.8769,-2.6435 -6.833,1.7093 -0.4492,2.0452 -4.6263,7.84 -9.2823,12.8772 -8.23,8.9037 -8.6739,9.1759 -15.9559,9.7797 -4.1196,0.3416 -7.4902,0.2623 -7.4902,-0.1764 z m -1413.3334,-24.7775 c 0,-0.6845 -1.6297,-1.4345 -3.6216,-1.6667 -9.7114,-1.1313 -33.9831,-47.3641 -32.5319,-61.9668 0.084,-0.8497 3.9688,-4.5433 8.6319,-8.2078 13.2374,-10.4028 12.4559,-13.9672 -3.4784,-15.8646 -3.4833,-0.4148 -6.29,-1.1205 -6.237,-1.5684 0.3147,-2.6622 10.3828,-8.7624 16.9719,-10.2829 9.6546,-2.2281 14.9318,-7.5127 14.9318,-14.9524 0,-2.7751 -0.6797,-5.7253 -1.5104,-6.556 -2.5122,-2.5121 -0.3417,-5.2565 4.8198,-6.0941 4.2544,-0.6904 25.6963,0.9657 26.8006,2.07 1.1501,1.1502 -2.636,12.7214 -4.9786,15.2156 -1.4884,1.5845 -2.4893,3.9845 -2.2242,5.3333 0.4281,2.1789 1.6302,2.3989 10.7873,1.9733 10.2174,-0.4746 10.3055,-0.4504 10.3055,2.8368 0,1.8236 -0.9,4.0626 -2,4.9755 -1.1,0.9129 -2,2.7221 -2,4.0207 0,1.2984 -0.8899,2.7021 -1.9775,3.1196 -1.1253,0.4317 -1.6384,1.6425 -1.1907,2.8092 1.049,2.7338 -5.8085,2.7397 -9.42,0.013 -4.8821,-3.6927 -8.0911,-2.4015 -14.1882,5.7091 -3.1699,4.2166 -6.5907,8.5082 -7.6018,9.5369 -1.0111,1.0285 -4.2627,5.1519 -7.2257,9.1627 -5.1463,6.9662 -5.3199,7.5176 -3.88,12.3236 0.829,2.767 1.1361,5.9984 0.6823,7.1808 -0.4537,1.1825 0.1549,3.6453 1.3524,5.4729 1.2151,1.8545 1.5538,3.3231 0.7664,3.3231 -0.9388,0 -0.9867,0.7929 -0.143,2.3693 0.6974,1.3031 1.133,4.3188 0.9681,6.7015 -0.2909,4.2021 1.0962,6.4542 6.1537,9.9905 2.3685,1.6561 4.2436,14.272 2.1212,14.272 -0.5961,0 -1.0839,-0.5601 -1.0839,-1.2448 z m 1927.1411,-36.3996 c -0.5589,-0.9043 -1.2677,-6.9043 -1.5751,-13.3333 -0.5342,-11.1748 -0.6948,-11.689 -3.6504,-11.689 -5.105,0 -5.1886,-2.6824 -0.238,-7.633 4.0326,-4.0327 5.944,-4.8463 13.8342,-5.8882 27.5746,-3.6413 32.4149,-3.2238 40.4488,3.4883 2.9881,2.4964 6.6626,4.9293 8.1658,5.4064 1.5248,0.484 2.4364,1.6408 2.0619,2.6167 -0.3692,0.962 -0.3003,2.12 0.1529,2.5733 0.4534,0.4533 0.9158,1.862 1.0276,3.1304 0.112,1.2684 0.5986,4.1061 1.0815,6.3061 0.4831,2.2 0.3001,4.9 -0.4067,6 -1.0533,1.6396 -2.6748,0.6612 -8.9976,-5.429 l -7.7126,-7.4291 -13.9032,0.2499 -13.9034,0.2497 -3.1349,7.1035 c -3.3713,7.639 -9.1185,15.9217 -11.0477,15.9217 -0.6527,0 -1.6442,-0.74 -2.2031,-1.6444 z m 1310.9295,-10.0629 c -0.4055,-0.4054 -0.7372,-1.9234 -0.7372,-3.3731 0,-2.4572 -0.6327,-2.5771 -9.3334,-1.7684 -5.7501,0.5344 -9.3333,0.3697 -9.3333,-0.4288 0,-2.2399 8.0296,-10.5543 11.0821,-11.4751 1.6048,-0.4841 4.554,-2.4118 6.5538,-4.2837 3.192,-2.988 4.6566,-3.3685 12,-3.1171 13.1576,0.4503 34.3641,7.7262 34.3641,11.79 0,1.1563 -2.2301,1.7014 -7,1.7112 -7.8936,0.016 -19.0376,3.0031 -22.3333,5.9856 -2.5198,2.2803 -14.1598,6.0626 -15.2628,4.9594 z m -2312.7372,-16.4203 c 0,-2.2701 1.0444,-5.8956 2.3208,-8.0564 1.9922,-3.3727 2.0484,-4.0972 0.3961,-5.1183 -1.0585,-0.6542 -3.7036,-0.8337 -5.8779,-0.3989 -3.3656,0.6732 -3.8209,0.4457 -3.0628,-1.5297 0.4898,-1.2763 0.8904,-3.1483 0.8904,-4.16 0,-1.0147 2.3664,-2.4768 5.2771,-3.2606 2.9024,-0.7816 5.6719,-2.06 6.1545,-2.8409 0.4828,-0.7811 0.9756,-6.1523 1.0955,-11.9363 0.2584,-12.4802 1.9704,-15.3338 6.4877,-10.8144 2.4515,2.4526 2.9852,4.4698 2.9852,11.2815 v 8.2949 l 7.6667,3.8224 c 7.9216,3.9495 9.6951,6.1776 4.9172,6.1776 -1.5123,0 -5.6611,0.9524 -9.2197,2.1163 -4.9311,1.6129 -6.8584,3.0532 -8.1015,6.0544 -2.1707,5.2405 -8.9415,14.496 -10.6044,14.496 -0.7287,0 -1.3249,-1.8575 -1.3249,-4.1276 z m 2027.5556,0.572 c -1.6414,-1.6413 -0.909,-18.7192 1.0397,-24.2421 1.9853,-5.6271 1.2272,-7.4847 -2.4751,-6.064 -1.1661,0.4476 -2.1202,0.2088 -2.1202,-0.5306 0,-2.189 9.1674,-6.941 13.3904,-6.941 2.1476,0 6.6356,-0.7304 9.9733,-1.6231 4.7799,-1.2785 6.6245,-1.2761 8.6859,0.013 1.4661,0.9158 2.617,1.0638 2.617,0.3368 0,-3.2013 5.199,-3.909 18.0176,-2.4529 12.7631,1.4497 13.0119,1.5429 10.1983,3.8212 l -2.8839,2.3353 3.9175,3.1191 c 2.1545,1.7155 5.5295,4.2535 7.4999,5.6399 3.2442,2.2826 3.3625,2.644 1.2516,3.8252 -3.3614,1.8812 -13.1195,0.199 -22.0216,-3.7959 -6.1407,-2.7559 -8.256,-3.1625 -10.421,-2.0039 -1.494,0.7996 -5.686,1.4538 -9.3156,1.4538 -6.0078,0 -7.0312,0.4782 -11.4209,5.3372 -2.8809,3.1888 -4.8219,6.704 -4.8219,8.7328 0,7.2766 -7.7634,16.3886 -11.111,13.041 z m -301.5556,-19.1255 c -4.4,-0.5406 -9.6891,-1.6585 -11.7535,-2.4842 -2.0644,-0.8258 -6.1144,-1.5014 -9,-1.5014 -6.7747,0 -6.8951,-2.6068 -0.3509,-7.5988 3.5181,-2.6837 6.9498,-3.9221 12.196,-4.4012 8.7228,-0.7965 11.5322,-3.6273 7.7489,-7.8078 -2.3271,-2.5714 -2.1255,-2.7986 8.966,-10.1028 17.2249,-11.3436 27.2048,-15.1798 29.5631,-11.364 1.2672,2.0504 -2.9415,7.7786 -7.8379,10.6676 -4.1328,2.4384 -4.2707,2.8088 -4.2352,11.378 l 0.037,8.8576 8,2.9977 c 11.6099,4.3504 12.6667,4.8663 12.6667,6.1831 0,0.6548 -1.65,1.2009 -3.6667,1.2134 -2.0166,0.013 -8.1666,1.2024 -13.6666,2.6439 -10.4311,2.734 -15.319,2.9588 -28.6667,1.3189 z M 5089.3344,2637.6 c 0,-1.4023 2.896,-4.2667 4.3136,-4.2667 0.6124,0 0.4714,1.2 -0.3136,2.6667 -1.4093,2.6332 -4,3.6696 -4,1.6 z M 663.33443,2622.4404 c -6.86086,-3.5699 -6.509,-3.0536 -5.0248,-7.3724 1.8732,-5.4505 0.97147,-6.72 -7.98481,-11.2411 -6.61272,-3.3381 -9.75691,-4.0949 -17.20744,-4.1414 -6.59684,-0.041 -9.11628,-0.5398 -9.11628,-1.8035 0,-3.1744 8.42977,-8.1915 14.91283,-8.8756 10.38141,-1.0956 18.35266,-9.2581 13.87401,-14.2069 -2.844,-3.1426 -2.68813,-4.6195 1.12504,-10.6599 3.7452,-5.9328 9.45827,-10.8063 12.66793,-10.8063 5.80718,0 7.2962,7.8642 2.32711,12.2902 -3.07333,2.7376 -3.07759,2.7856 -0.66667,7.5144 1.33452,2.6176 2.42642,5.8052 2.42642,7.0836 0,3.0394 8.04386,4.6217 14.07897,2.7694 3.70445,-1.1369 4.80147,-0.9646 6.61429,1.0384 1.21948,1.3476 1.98314,4.0016 1.74002,6.0474 -0.352,2.962 -1.43375,3.9425 -5.76662,5.2272 -2.93333,0.8697 -7.26065,2.5857 -9.61626,3.8136 -4.05203,2.1118 -4.27822,2.6272 -4.19544,9.5573 0.0853,7.1421 0.18234,7.3252 3.88334,7.3252 4.47955,0 6.99299,3.4317 5.10172,6.9656 -1.79405,3.3523 -12.27312,3.0652 -19.17336,-0.5252 z m 4246.76237,-22.2856 c -0.4006,-0.6481 -3.586,-2.5255 -7.0788,-4.1717 -5.7058,-2.6896 -7.647,-2.9091 -19.1309,-2.1626 -8.9464,0.5816 -17.5465,0.1486 -28.6667,-1.443 -14.5137,-2.0775 -18.4262,-2.2495 -30.5526,-1.3431 -3.5512,0.2653 -3.9536,-0.075 -3.5868,-3.0344 1.0369,-8.3637 8.8856,-14.4412 21.8046,-16.884 5.3611,-1.0137 10.6298,-2.7255 11.7083,-3.804 1.2288,-1.2288 2.0849,-5.1489 2.2933,-10.5005 0.2967,-7.6202 1.236,-10.2303 8.7232,-24.2386 9.4974,-17.7692 14.1307,-23.2396 19.6839,-23.2396 4.2332,0 5.3532,1.8839 5.4159,9.1091 0.023,2.69 0.9233,6.0556 2,7.4791 3.9862,5.2704 2.176,13.8244 -5.1487,24.329 -3.8409,5.5084 -3.872,5.6984 -2.2956,14.0528 1.5979,8.4684 1.5984,8.4691 8.4999,11.5668 3.7961,1.7038 10.0538,5.231 13.9061,7.8383 5.5365,3.7472 6.9791,5.4617 6.8852,8.1827 -0.065,1.8932 0.3028,4.7922 0.8181,6.4422 0.7628,2.4427 0.4272,3 -1.8066,3 -1.5088,0 -3.0712,-0.5302 -3.4718,-1.1785 z m -2350.6437,-47.9627 c -1.8863,-3.0521 -3.3527,-8.2881 -2.1052,-7.517 2.0599,1.273 5.5565,8.6582 4.0995,8.6582 -0.709,0 -1.6063,-0.5136 -1.9943,-1.1412 z m 63.2147,0.3687 c 0,-0.4249 1.4497,-4.4749 3.2217,-9 1.7719,-4.5252 3.6124,-10.7047 4.0899,-13.7324 0.8346,-5.2927 0.7028,-5.5625 -3.4207,-7 -2.3589,-0.8223 -6.5503,-1.4951 -9.3141,-1.4951 -7.3234,0 -9.4716,-1.0824 -7.9162,-3.9888 2.5652,-4.7932 12.1687,-8.9365 22.8862,-9.874 12.5008,-1.0934 22.8729,0.4702 41.0134,6.1828 13.6206,4.2892 18.6822,7.68 11.4647,7.68 -2.8955,0 -16.6916,4.9256 -16.6916,5.9594 0,0.1637 0.9329,2.1677 2.0732,4.4534 3.2944,6.6039 1.0936,9.0442 -9.0184,9.9988 -6.4668,0.6107 -8.7272,0.3488 -9.8684,-1.143 -2.0872,-2.7286 -2.5903,-2.4992 -5.5601,2.5345 -3.0239,5.1249 -12.3323,10.1969 -18.7139,10.1969 -2.3352,0 -4.2457,-0.3477 -4.2457,-0.7725 z m 26.6666,-17.8941 c 0,-0.7334 -0.6,-1.3334 -1.3333,-1.3334 -0.7333,0 -1.3333,0.6 -1.3333,1.3334 0,0.7333 0.6,1.3333 1.3333,1.3333 0.7333,0 1.3333,-0.6 1.3333,-1.3333 z m -108.7904,9.6462 c -0.8013,-0.5388 -1.8189,-2.843 -2.2614,-5.1208 -0.8018,-4.1266 -0.7859,-4.1397 4.5889,-3.7569 2.9664,0.2113 5.4904,0.5748 5.6091,0.8079 0.1186,0.2329 1.3756,1.7994 2.7933,3.4809 2.128,2.5241 2.1945,2.9104 0.3809,2.2144 -1.2081,-0.4636 -3.558,0.1107 -5.2218,1.276 -3.4115,2.3895 -3.8478,2.4708 -5.889,1.0985 z m -16.1913,-11.9364 c 2.0268,-0.3064 5.0268,-0.2982 6.6667,0.019 1.64,0.3164 -0.019,0.5672 -3.685,0.5572 -3.6666,-0.013 -5.0084,-0.2689 -2.9817,-0.5755 z m 2653.7812,-3.5749 c 0.3936,-1.0259 0.075,-2.2613 -0.7085,-2.7455 -1.8887,-1.1672 -1.8204,-9.4784 0.108,-13.1437 0.8426,-1.6019 2.6426,-4.3433 4,-6.0923 2.4484,-3.1546 2.4678,-3.0733 2.4678,10.3334 0,13.4793 -0.013,13.5132 -3.2914,13.5132 -2.2723,0 -3.0699,-0.5776 -2.5758,-1.8651 z m -853.4661,-3.5448 c -2.9334,-0.6067 -8.7706,-1.1377 -12.9715,-1.18 l -7.638,-0.077 1.5417,-3.3838 c 2.3592,-5.1778 16.648,-13.9496 22.7234,-13.9496 4.6045,0 5.011,-0.3041 5.011,-3.7496 0,-2.0622 1.1211,-6.1122 2.4912,-9 1.3702,-2.8877 3.5386,-7.5004 4.8186,-10.2504 2.8624,-6.1493 7.4517,-6.7962 10.8982,-1.5364 2.3112,3.5275 2.5339,6.7446 1.2784,18.4679 -0.8229,7.6844 0.2718,9.4763 6.504,10.6455 6.6694,1.2512 16.864,6.0406 15.9624,7.4993 -0.4272,0.6915 -2.6914,1.2629 -5.0314,1.2701 -2.3402,0.013 -7.4643,1.5071 -11.3871,3.3334 -5.9003,2.7466 -9.0099,3.2937 -18,3.1669 -5.9772,-0.084 -13.2676,-0.6497 -16.2009,-1.2565 z m -3169.3544,-19.1016 c -2.0874,-4.9957 -3.1216,-26.5616 -1.4842,-30.9511 0.8548,-2.2918 0.3634,-3.0532 -2.726,-4.2226 -2.0728,-0.7847 -6.0931,-1.7508 -8.934,-2.1471 -7.116,-0.9924 -7.4698,-1.8191 -2.6296,-6.1439 3.769,-3.3674 5.5403,-3.8558 17.1392,-4.7254 12.9399,-0.9702 23.3223,0.5596 23.3223,3.4362 0,0.7119 3.3,2.9128 7.3333,4.891 7.6923,3.7726 8.8756,5.3141 5,6.5136 -1.2833,0.3972 -3.4105,1.3004 -4.7271,2.0072 -1.3166,0.7068 -4.4627,0.8969 -6.9913,0.4225 -6.2358,-1.1697 -10.8733,0.1945 -12.8488,3.7801 -0.9317,1.6911 -1.6706,8.0067 -1.7052,14.5746 -0.054,10.1933 -0.4158,11.9209 -3.0052,14.3333 -4.0736,3.7953 -5.5607,3.4557 -7.7434,-1.7684 z m 1342.6877,-40.9796 c -9.1781,-1.6211 -20.7173,-2.5056 -33.1815,-2.5437 -5.783,-0.017 -11.0105,-0.3386 -11.6164,-0.713 -2.058,-1.2718 1.774,-7.0226 7.2963,-10.9496 3.974,-2.826 7.6591,-4.1278 13.2716,-4.6885 9.73,-0.9719 14.23,-3.7305 14.23,-8.7233 0,-2.043 -0.8809,-4.8791 -1.9576,-6.3027 -2.9053,-3.8412 -2.4609,-7.148 2.008,-14.9405 4.1272,-7.1968 13.162,-14.981 17.3877,-14.981 3.5604,0 6.5619,3.7028 6.5619,8.0952 0,2.1476 0.5461,3.9048 1.2136,3.9048 0.6675,0 5.0175,-1.7994 9.6667,-3.9989 9.3602,-4.4281 13.3342,-4.9557 15.7156,-2.0863 1.2301,1.4822 1.2292,2.6118 0,5 -3.3092,6.4086 -8.4111,12.085 -12.3503,13.7412 -3.5535,1.4942 -4.1308,2.467 -4.4688,7.5299 -0.2136,3.1977 -0.5497,7.5833 -0.7472,9.7457 -0.3407,3.7316 0.116,4.1092 8.9744,7.4266 12.6936,4.7533 18.2711,7.8258 17.6453,9.7201 -0.3192,0.966 -4.9237,1.9199 -11.7517,2.4344 -6.1748,0.4653 -13.9269,1.5007 -17.2269,2.3008 -6.903,1.6736 -11.319,1.6797 -20.6667,0.029 z m 2103.9936,-4.3941 c -1.7701,-1.7702 -3.5856,-4.9202 -4.0343,-7 -0.4486,-2.0798 -1.9374,-5.8815 -3.3085,-8.4482 -2.2833,-4.2746 -3.0593,-4.7005 -9.2384,-5.0697 -8.1529,-0.4871 -9.1327,-3.4024 -2.1272,-6.3295 5.052,-2.1108 7.3815,-5.3552 7.3815,-10.2806 0,-3.899 5.1296,-8.9868 9.0605,-8.9868 3.0825,0 5.2319,4.9108 3.7917,8.6637 -0.5938,1.5479 0.2974,2.0029 3.9224,2.0029 5.3136,0 13.463,3.678 11.7119,5.2858 -0.6343,0.5824 -3.3552,1.762 -6.0465,2.6213 -6.7678,2.1612 -8.4678,4.4836 -6.6554,9.0917 1.3814,3.5119 5.5487,19.1794 5.5487,20.8603 0,2.1551 -7.1673,0.4283 -10.0064,-2.4109 z M 5070.788,2425 c -0.132,-2.5568 -2.8169,-3.1033 -4.919,-1.0012 -2.1606,2.1605 -0.5038,-8.3531 1.714,-10.8763 1.0686,-1.216 5.1897,-3.616 9.1578,-5.3333 7.7164,-3.3396 8.3882,-4.3329 5.2642,-7.7849 -1.8142,-2.0046 -1.1398,-2.7738 7.3966,-8.4383 10.1392,-6.728 14.5995,-7.8513 14.5995,-3.6771 0,1.4055 -0.6488,2.7718 -1.4419,3.0362 -0.9572,0.319 -0.756,1.8129 0.5986,4.4444 1.1221,2.1801 2.3521,5.0138 2.7333,6.2972 0.5765,1.941 2.3016,2.3333 10.2628,2.3333 h 9.5699 l -3.5967,3.3333 c -1.9781,1.8334 -4.7789,3.3334 -6.224,3.3334 -1.4449,0 -6.4711,1.7429 -11.1692,3.873 -10.9856,4.9812 -15.0928,5.8308 -21.5095,4.45 -7.387,-1.5897 -9.6878,-0.7378 -11.0896,4.1055 -0.6746,2.3309 -1.2806,3.1881 -1.3468,1.9048 z m -313.031,-9.54 c -5.7191,-5.1419 -7.6791,-6.1267 -12.1943,-6.1267 -4.456,0 -5.8692,0.6871 -8.2283,4 -1.5665,2.2 -3.5825,4 -4.4798,4 -0.8974,0 -4.3066,-2.7518 -7.5759,-6.1153 -5.9017,-6.0715 -5.9947,-6.1096 -12.98,-5.3175 -5.6665,0.6426 -7.1923,0.39 -7.8399,-1.2976 -0.9484,-2.4714 4.9968,-9.1937 10.8186,-12.2324 5.9926,-3.128 31.0445,-3.086 41.3904,0.069 11.359,3.4644 19.5089,6.9574 19.5017,8.3585 0,0.6609 -2.19,1.7224 -4.8591,2.3589 -5.1122,1.2192 -5.008,0.8296 -2.5648,9.5859 0.4607,1.6507 -0.2181,3.9579 -1.7044,5.7933 l -2.4698,3.0503 z m -1807.6431,-57.7933 c -0.5491,-0.55 -7.1945,-1.3454 -14.7679,-1.7674 -9.5794,-0.5338 -14.8065,-1.4468 -17.177,-3 -1.874,-1.228 -5.2286,-2.2326 -7.4543,-2.2326 -2.4521,0 -4.0469,-0.6899 -4.0469,-1.7506 0,-2.6954 6.9358,-8.6361 10.6666,-9.1361 4.6755,-0.6265 5.0596,-5.9729 0.7827,-10.892 -5.7852,-6.6537 -5.9831,-23.5547 -0.2757,-23.5547 3.6889,0 10.1597,11.4366 10.1597,17.9562 0,1.6301 1.2871,4.1069 2.8603,5.5038 1.573,1.3971 3.9828,5.0484 5.3548,8.1142 2.1822,4.8764 3.8612,6.2532 13.414,11 6.0057,2.9842 11.846,5.435 12.9785,5.4462 1.1325,0.013 2.9591,0.5959 4.0591,1.2994 1.3404,0.857 -0.2995,1.01 -4.9719,0.4638 -5.7185,-0.6685 -7.1224,-0.4228 -7.8093,1.3674 -0.9058,2.3602 -2.1938,2.764 -3.7727,1.1824 z m -403.4461,-6.4002 c -4.7667,-0.9414 -10.8974,-2.6614 -13.6239,-3.8224 -2.7264,-1.1609 -7.3764,-2.1108 -10.3333,-2.1108 -2.9568,0 -5.3762,-0.5378 -5.3762,-1.1952 0,-2.1929 9.5008,-9.5716 13.3038,-10.3322 3.683,-0.7366 3.7054,-0.7967 1.224,-3.2782 -1.3903,-1.3902 -2.5278,-3.7277 -2.5278,-5.1944 0,-3.7741 8.2227,-3.639 13.6482,0.2242 3.9313,2.7993 4.1172,2.8124 5.8725,0.4118 0.9969,-1.3634 1.8127,-4.6348 1.8127,-7.2696 0,-3.6797 1.5472,-6.8454 6.6726,-13.653 7.0516,-9.3656 15.7066,-17.3643 17.973,-16.6099 4.0353,1.3433 0.8304,15.2773 -4.7184,20.5147 -3.1866,3.0074 -3.8119,4.8813 -4.6,13.784 -1.1214,12.6685 -0.023,15.0268 8.3268,17.868 3.4902,1.1877 7.846,2.9944 9.6793,4.0149 3.8997,2.1708 3.7532,2.2424 -10.6667,5.2089 -15.3937,3.1671 -17.3757,3.274 -26.6666,1.4392 z m -1109.5403,-10.5802 c -2.6805,-0.9859 -6.2805,-2.6723 -8,-3.7475 -1.7195,-1.0752 -4.7764,-2.3377 -6.7931,-2.8056 -2.0166,-0.4679 -3.6666,-1.3281 -3.6666,-1.9116 0,-1.4723 8.8529,-5.5549 12.0452,-5.5549 3.3052,0 3.3461,-1.8751 0.108,-4.948 -5.5752,-5.291 -9.872,-16.8888 -7.2343,-19.5266 1.0076,-1.0074 12.4144,9.6227 12.4144,11.5692 0,0.6634 1.65,3.2668 3.6667,5.7856 8.1524,10.1824 9.377,11.1198 14.5276,11.1198 4.3278,0 4.681,0.2201 2.6894,1.6764 -2.0716,1.5148 -1.8389,1.9208 2.4118,4.21 2.5874,1.3934 4.7045,2.9536 4.7045,3.4669 0,0.9167 -13.6897,2.7372 -19.1956,2.5527 -1.5424,-0.052 -4.9975,-0.9006 -7.678,-1.8864 z m 23.9569,-10.9304 c 0.9626,-0.3852 2.1126,-0.3379 2.5556,0.1053 0.4431,0.4431 -0.3445,0.7583 -1.75,0.7004 -1.5533,-0.064 -1.8692,-0.38 -0.8056,-0.8056 z m 3090.2095,-46.2882 c -5.8889,-0.95 -11.9995,-2.4188 -13.5791,-3.2641 -1.5794,-0.8453 -5.4612,-1.5461 -8.6261,-1.5573 -11.5175,-0.041 -11.5179,-4.7818 -9e-4,-11.05 4.915,-2.6751 8.4948,-3.5963 13.9752,-3.5963 6.57,0 7.7368,-0.4385 10.7761,-4.0507 2.5275,-3.0037 3.2164,-5.0104 2.6657,-7.7642 -0.6924,-3.4615 -0.2141,-3.948 7.0435,-7.1658 9.8928,-4.3861 17.1121,-6.3358 23.4947,-6.3452 9.9809,-0.015 6.9124,7.266 -4.5612,10.8223 -3.9703,1.2305 -4.977,2.2701 -5.5364,5.7179 -0.9572,5.8984 0.2706,11.1148 2.8606,12.1537 1.2074,0.4843 5.4951,1.7551 9.5284,2.824 8.3339,2.2088 13.7922,5.3203 12.6304,7.1999 -0.4332,0.7012 -2.1393,1.2748 -3.7913,1.2748 -1.6519,0 -7.4665,1.1641 -12.9213,2.5868 -14.1288,3.6853 -21.7559,4.1826 -33.9583,2.2142 z m -2909.4403,-29.5324 c -2.7726,-2.94 -5.418,-7.8621 -6.9865,-13 l -2.5243,-8.2686 -7.03,-1.379 c -6.6524,-1.3048 -6.9068,-1.5022 -4.7336,-3.6753 3.9787,-3.9788 6.8032,-4.8451 17.0642,-5.234 8.459,-0.3205 12.1501,0.3353 24.1349,4.2883 7.7817,2.5666 14.1653,5.0466 14.1857,5.5112 0.02,0.4644 -1.2892,1.1913 -2.9102,1.6152 l -2.9475,0.7708 3.1799,3.3846 c 3.6758,3.913 3.1053,4.1408 -3.4794,1.3896 -3.4965,-1.4609 -7.2174,-1.7682 -13.8953,-1.1476 l -9.1201,0.8476 1.9382,3.748 c 1.066,2.0615 1.9382,6.4779 1.9382,9.8143 0,7.6396 -2.5096,8.0196 -8.8142,1.3349 z m 1161.4808,-0.5633 c -7.7328,-1.3932 -22.3954,-4.3025 -24.3108,-4.8236 -5.3617,-1.4591 6.751,-9.8817 14.2108,-9.8817 2.6524,0 4.4924,-0.9086 5.445,-2.6884 1.2065,-2.2544 0.7962,-3.2767 -2.5415,-6.3334 -3.9763,-3.6413 -9.3855,-13.7962 -9.4408,-17.7234 -0.016,-1.1431 0.7903,-3.1992 1.7919,-4.5691 1.6322,-2.2324 2.2641,-2.3072 6.0913,-0.722 3.8627,1.6 13.4208,12.1713 13.4208,14.8435 0,0.5997 2.6124,3.7784 5.8053,7.0636 l 5.8052,5.9732 4.7907,-3.2554 c 5.3463,-3.6329 7.6413,-4.0128 9.9988,-1.6553 2.6368,2.6368 1.8369,4.8757 -2.5532,7.1459 -5.0116,2.5916 -4.2729,3.4213 6.4865,7.2853 8.258,2.9657 11.2074,6.6355 5.3328,6.6355 -1.6502,0 -7.2002,0.8896 -12.3333,1.9768 -9.8348,2.0832 -19.1369,2.3252 -27.9995,0.7285 z m -893.3333,-1.7869 c -2.9333,-0.8718 -6.8333,-2.4462 -8.6667,-3.4987 -1.8333,-1.0524 -5.384,-2.2545 -7.8905,-2.6715 -6.3031,-1.0482 -6.4641,-3.2404 -0.5049,-6.8736 2.7841,-1.6973 5.8942,-4.2322 6.9114,-5.6332 1.4783,-2.0361 2.9978,-2.4176 7.5742,-1.9018 6.4133,0.7229 8.5765,-0.6539 8.5765,-5.4586 0,-4.8329 7.7343,-29.0006 9.8403,-30.7485 2.865,-2.3777 5.6458,-0.4388 7.3029,5.0919 2.0553,6.8602 1.9167,10.9541 -0.4873,14.3864 -2.4383,3.4812 -3.127,22.0784 -0.9162,24.7422 0.8122,0.9786 5.403,3.1652 10.2018,4.8594 9.0472,3.194 9.4617,3.5601 7.5129,6.6372 -1.5791,2.4936 -31.8971,3.3148 -39.4544,1.0688 z m 418.9244,-26.0083 c -3.0381,-3.4204 -4.9087,-11.8999 -4.9169,-22.2893 -0.013,-8.9354 -0.1908,-9.4875 -3.8799,-11.6667 -2.1299,-1.2581 -6.3737,-2.2875 -9.4311,-2.2875 -4.4434,0 -5.4722,-0.4398 -5.1276,-2.192 0.2371,-1.2056 2.1292,-3.4556 4.2046,-5 3.2513,-2.4194 5.5574,-2.7958 16.6666,-2.7205 11.3351,0.077 14.2628,0.6243 24.2266,4.5293 6.2333,2.4431 12.5168,5.2538 13.9633,6.2459 1.4465,0.9923 3.6965,1.804 5,1.804 1.3035,0 2.37,0.6 2.37,1.3333 0,0.7334 -1.7104,1.3334 -3.8011,1.3334 -2.0905,0 -5.6424,0.6418 -7.893,1.4265 -4.0592,1.4151 -4.0768,1.4627 -2.199,5.9571 2.1518,5.1497 2.4852,16.2901 0.5774,19.283 -1.725,2.7058 -4.7383,0.7567 -10.5022,-6.7928 -2.4665,-3.2306 -4.904,-6.0364 -5.4165,-6.2349 -0.9137,-0.354 -5.7045,9.5637 -7.3608,15.2379 -1.1276,3.8634 -4.0423,4.778 -6.4804,2.0333 z m 870.742,-8.2369 c -11.9696,-7.2192 -18.5317,-7.4155 -22.5097,-0.6732 -4.8056,8.1449 -11.5935,5.9966 -20.49,-6.485 -2.4571,-3.4472 -3.5312,-3.7997 -13.6667,-4.4853 -7.0337,-0.4759 -11,-1.3023 -11,-2.292 0,-1.8639 7.5124,-9.1592 11.5791,-11.2444 1.6017,-0.8213 5.3912,-1.4933 8.4209,-1.4933 3.0297,0 6.7944,-0.6882 8.3659,-1.5291 4.4281,-2.3699 19.8841,-1.5309 29.1209,1.5808 8.2492,2.7789 22.9872,9.6977 26.2429,12.3197 2.4028,1.9352 -0.3633,3.5812 -6.063,3.6082 -2.3834,0.013 -4.3334,0.4309 -4.3334,0.9328 0,0.5017 1.2752,3.5465 2.8338,6.7661 4.1245,8.5201 1.9378,9.2905 -8.5007,2.9947 z m -600.3331,-2.8355 c -2.9722,-0.7721 -9.908,-1.0291 -15.6666,-0.5804 -11.8612,0.9241 -12.9928,-0.3032 -6.6667,-7.2301 2.8773,-3.1506 6.2499,-4.678 15.6667,-7.0958 13.2341,-3.3977 21.6464,-8.4966 26.9889,-16.3588 3.7695,-5.5473 8.0143,-5.7781 10.5984,-0.5762 1.5228,3.0654 1.2243,3.7676 -3.7605,8.8468 -3.1816,3.2417 -5.2247,6.4878 -4.9542,7.8709 0.4458,2.2775 6.6982,5.2335 15.1274,7.152 3.761,0.8561 3.4026,1.1345 -6,4.6625 -11.067,4.1524 -23.1674,5.4304 -31.3334,3.3091 z m 1371.3334,-23.624 c 0,-5.1079 3.9705,-20.5092 6.5112,-25.2567 1.3165,-2.4597 0.978,-2.9188 -3.159,-4.2841 -2.5484,-0.8411 -5.2793,-1.13 -6.0686,-0.6423 -0.7894,0.4879 -2.9091,0.5171 -4.7107,0.065 -2.7036,-0.6786 -3.1307,-1.3987 -2.4463,-4.1255 0.6291,-2.5063 0.3034,-3.3035 -1.3497,-3.3035 -1.9987,0 -2.0052,-0.3354 -0.08,-4.0589 1.1544,-2.2324 3.9304,-5.1728 6.1689,-6.5341 3.6272,-2.2059 3.7915,-2.5635 1.5094,-3.2878 -2.5958,-0.8238 -7.2122,-6.2969 -8.7072,-10.3229 -0.4502,-1.212 -0.092,-3.1975 0.7962,-4.412 2.2911,-3.1332 7.0718,-1.0313 14.8514,6.5296 6.7629,6.5728 11.917,7.9369 13.3174,3.5247 0.8987,-2.8316 21.6632,-24.1052 23.5283,-24.1052 3.6953,0 -0.566,14.8465 -4.7187,16.4401 -2.4392,0.936 -7.8552,11.2292 -7.0342,13.3685 0.3272,0.8526 3.369,2.292 6.7597,3.199 6.7805,1.8134 7.6764,3.2438 3.2647,5.2124 -2.6488,1.1818 -1.9566,1.9073 7.98,8.3633 5.9841,3.8881 10.6102,7.5063 10.2802,8.0403 -0.3301,0.5341 -7.938,1.3857 -16.9064,1.8925 -8.9684,0.5069 -17.0893,1.5716 -18.0465,2.366 -0.9572,0.7944 -1.7441,3.0209 -1.7487,4.9477 0,1.927 -0.8565,5.1298 -1.8936,7.1175 -2.4002,4.6009 -10.8753,12.1185 -14.9609,13.2707 -2.8845,0.8134 -3.1372,0.4909 -3.1372,-4.0043 z m 371.4662,-11.1287 c 0.5842,-0.9634 3.1392,-4.6569 5.6779,-8.2078 5.2771,-7.3811 4.5573,-8.808 -4.4775,-8.8772 -10.5125,-0.08 -11.292,-4.1343 -1.931,-10.0435 5.3837,-3.3987 6.1028,-3.4903 27.2713,-3.4751 21.6016,0.016 21.8005,0.043 30.8675,4.2475 11.0016,5.1017 14.6184,7.9237 12.157,9.4859 -0.934,0.5926 -3.2542,1.0869 -5.156,1.0981 -1.9018,0.013 -7.0018,1.2804 -11.3333,2.8204 -5.0372,1.7909 -11.5561,2.8721 -18.0883,3 -9.4178,0.1844 -10.4354,0.4829 -13.0716,3.8345 -2.7521,3.4992 -6.8734,5.1136 -17.8468,6.9911 -4.0432,0.6916 -4.906,0.5064 -4.0692,-0.8739 z M 5142.6678,2145 c -4.7667,-0.8123 -12.7167,-1.3616 -17.6667,-1.2208 -9.3351,0.2657 -10.2187,-0.344 -7.5973,-5.242 2.1318,-3.9836 11.89,-10.5296 15.7973,-10.5973 1.9067,-0.033 5.2237,-0.81 7.3713,-1.7264 l 3.9047,-1.6662 -3.2201,-3 c -3.5486,-3.3058 -2.6343,-4.7389 4.0774,-6.3917 1.8334,-0.4515 8.3504,-2.2461 14.4826,-3.9883 16.3294,-4.639 25.041,-4.0362 23.979,1.6591 -0.3193,1.7127 -2.2265,2.8976 -6.0202,3.7399 -4.4618,0.9906 -5.6818,1.9069 -6.2087,4.6633 -0.7577,3.964 0.4687,4.9832 7.4067,6.1555 4.6473,0.785 5.0273,1.1877 5.0273,5.326 0,4.6401 -0.8523,5.4202 -11.4921,10.5192 -5.7035,2.7332 -19.415,3.5464 -29.8412,1.7697 z m -2004.5466,-11.7401 c -2.5517,-2.2403 -6.7544,-7.8554 -9.3394,-12.4778 l -4.7,-8.4044 -8.3736,-0.7648 c -7.0162,-0.6406 -8.806,-0.3606 -11.0404,1.7274 -3.3679,3.1472 -20.1442,11.0561 -22.082,10.4101 -0.7984,-0.2661 1.0445,-3.6188 4.0953,-7.4504 3.0508,-3.8317 4.8959,-6.9667 4.1001,-6.9667 -2.3493,0 -1.6556,-3.7912 1.2199,-6.6666 1.4667,-1.4667 2.6667,-3.1967 2.6667,-3.8446 0,-1.7916 4.8617,-2.8198 17.3333,-3.6662 10.6217,-0.7208 12.1595,-0.4712 24.4924,3.9744 7.2376,2.6089 13.5201,5.1045 13.9615,5.5457 1.1909,1.1911 -2.6796,3.2801 -6.1206,3.3036 -4.689,0.032 -3.7421,4.7681 2.3334,11.6701 11.1462,12.663 3.764,24.419 -8.5466,13.6102 z m -1022.1201,-53.8206 c -4.0333,-1.0054 -9.7333,-2.7642 -12.6667,-3.9085 -2.9333,-1.1443 -7.2833,-2.1068 -9.6666,-2.1389 -6.4284,-0.087 -5.5319,-3.117 2.3333,-7.8858 3.4433,-2.0877 6.8671,-2.8308 13.0607,-2.8345 7.196,0 8.8746,-0.4857 11.7633,-3.3744 2.1647,-2.1647 3.2843,-4.6676 3.1315,-7 -0.1307,-1.9968 -0.1744,-4.2632 -0.097,-5.0364 0.077,-0.7732 4.537,-3.6672 9.9095,-6.4309 10.7877,-5.5496 22.8985,-7.3988 22.8985,-3.4966 0,3.9694 5.5023,5.5152 6.8772,1.9322 0.4583,-1.1943 -0.5133,-3.459 -2.3001,-5.3608 -2.8509,-3.0347 -2.9243,-3.4623 -0.9348,-5.4516 2.8205,-2.8207 14.3609,-3.9255 18.4036,-1.7619 2.8835,1.5432 2.9384,1.7791 0.7813,3.3563 -3.4141,2.4964 -1.2757,3.248 15.4886,5.4432 8.1974,1.0734 15.1798,2.2272 15.5165,2.5638 1.7771,1.7771 -1.7997,1.9948 -8.4223,0.5127 -6.8902,-1.5419 -7.6117,-1.4743 -9.3917,0.8813 -2.7993,3.7046 -1.8656,5.0312 4.7511,6.7502 3.2434,0.8426 7.3973,2.1325 9.2306,2.8665 3.1515,1.2616 3.1879,1.3881 0.6667,2.3205 -1.4667,0.5426 -6.5667,2.6403 -11.3333,4.6618 -4.7667,2.0214 -11.0982,4.0704 -14.07,4.5533 -6.346,1.0311 -23.2163,-2.1495 -27.5679,-5.1973 -1.6255,-1.1386 -5.1577,-2.0702 -7.8495,-2.0702 -5.2474,0 -6.5221,1.5248 -6.5001,7.7758 0.013,3.1265 1.3036,4.1785 10.6667,8.6816 5.8597,2.8181 10.6541,5.6681 10.6541,6.3333 0,0.6651 -0.15,1.2417 -0.3333,1.2812 -1.8908,0.4079 -23.4848,2.7711 -29.6667,3.2467 -4.5189,0.3477 -11.1909,-0.1799 -15.3333,-1.2126 z m 494,-22.7922 c -5.8667,-1.7656 -12.5812,-3.2335 -14.9213,-3.2619 -7.6792,-0.093 -7.269,-4.6219 0.8313,-9.1744 2.8159,-1.5827 7.438,-2.8965 10.2716,-2.9199 4.5693,-0.037 4.888,-0.2426 2.8184,-1.8136 -2.6951,-2.0458 -3.0536,-6.2237 -0.7333,-8.544 0.88,-0.88 3.73,-1.629 6.3333,-1.6646 4.3072,-0.059 5.2135,-0.8038 10.0667,-8.2726 5.8078,-8.9381 18.3046,-20.0564 21.7888,-19.3854 4.5554,0.8773 3.3921,11.9889 -1.9156,18.2969 -2.8602,3.3991 -3.3923,5.4631 -3.6136,14.0169 l -0.2596,10.0311 10.3186,4.2591 c 5.6754,2.3425 10.1188,4.4589 9.8746,4.7032 -0.2443,0.2442 -6.0876,1.9264 -12.9854,3.7381 -15.5944,4.0959 -24.2413,4.0939 -37.8745,-0.013 z m -1289.54,-17.752 c 1.2137,-1.3411 2.2067,-3.3722 2.2067,-4.5134 0,-3.0372 -6.0827,-6.5192 -13.1558,-7.531 -8.5667,-1.2254 -8.5797,-5.0356 -0.031,-9.1226 5.6907,-2.7206 7.1737,-2.8556 20,-1.8184 13.7943,1.1154 28.7019,5.2068 44.5074,12.215 5.5793,2.4738 6.2252,3.105 4,3.9088 -11.9329,4.3097 -17.6219,5.351 -31.9872,5.855 -8.8,0.3087 -18.096,1.21 -20.6579,2.0031 -6.4845,2.0072 -7.4264,1.8149 -4.8821,-0.9965 z m -1160.46,-3.7143 c -5.82219,-3.3515 -6.31612,-3.4103 -16.66667,-1.9823 -22.53748,3.1092 -32.54297,1.4274 -45.949894,-7.7241 C 92.973567,2022.4635 88.135531,2020 86.633344,2020 c -2.334251,0 -1.952821,-0.8101 2.624161,-5.5733 4.115302,-4.2828 6.655834,-5.7495 10.971295,-6.3334 l 5.61588,-0.76 -4.1028,-4.6666 c -2.256545,-2.5667 -9.121351,-7.4666 -15.255127,-10.8887 -13.376329,-7.4627 -18.306029,-12.3047 -19.401674,-19.0563 -0.760572,-4.6869 -0.621516,-4.9662 2.050052,-4.1182 1.710513,0.5428 2.865969,0.3357 2.865969,-0.5136 0,-0.7828 0.6,-1.4232 1.333333,-1.4232 0.733334,0 1.333334,0.9377 1.333334,2.0838 0,1.3956 0.990654,1.946 3,1.6667 2.308096,-0.3209 2.900412,0.1612 2.568201,2.0904 -0.354824,2.0605 0.198708,2.3871 3.105088,1.8315 2.278988,-0.4356 3.787349,-0.024 4.241117,1.159 0.387327,1.0094 1.690038,1.8462 2.894912,1.8595 1.204875,0.013 4.890682,1.8612 8.190682,4.1065 3.300003,2.2452 11.100003,6.496 17.333333,9.4464 7.1811,3.399 13.79305,7.7583 18.04703,11.8986 5.43969,5.2944 8.42098,7.0077 15.71065,9.029 4.94832,1.3722 10.15335,3.5414 11.56673,4.8204 3.8795,3.511 16.2242,8.8775 18.45324,8.0222 2.41904,-0.9283 10.88902,1.7341 10.88902,3.4228 0,0.6764 -1.15,1.2298 -2.55556,1.2298 -1.40555,0 -2.75555,0.5735 -3,1.2743 -0.28026,0.8036 -2.41462,0.8153 -5.77778,0.032 -6.43942,-1.5003 -18.01129,-1.6973 -17.97114,-0.3061 0.0159,0.55 1.93482,1.9 4.26436,3 2.32952,1.1 4.46653,2.75 4.74892,3.6666 0.83734,2.7182 -3.95176,1.8784 -10.37547,-1.8192 z m 632.65412,-39.2025 c -2.94023,-0.5847 -8.94023,-2.3774 -13.33333,-3.9838 -4.3931,-1.6064 -11.13746,-3.5913 -14.98746,-4.411 -3.85774,-0.8214 -7,-2.229 -7,-3.1358 0,-0.9049 2.00664,-3.1758 4.45919,-5.0465 3.4476,-2.6296 6.01863,-3.4012 11.33333,-3.4012 6.95772,0 8.16194,-0.8456 5.2918,-3.7157 -2.14293,-2.143 3.19231,-7.8403 8.41646,-8.9878 2.99273,-0.6573 3.83256,-1.5829 3.83256,-4.224 0,-6.0834 20.67332,-27.0725 26.66517,-27.0725 1.15925,0 1.45819,1.3499 0.95964,4.3333 -1.29457,7.7474 -3.39704,11.6667 -6.25848,11.6667 -2.96144,0 -3.60109,1.9521 -1.13837,3.4743 1.03453,0.6393 0.58469,1.3261 -1.33334,2.0357 -2.11728,0.7832 -2.89462,2.18 -2.89462,5.2013 0,2.2719 -0.64786,5.3412 -1.43968,6.8207 -1.03651,1.9368 -1.01727,4.4509 0.0688,8.9779 1.47485,6.1478 1.74418,6.4024 12.10634,11.4409 5.82887,2.8343 10.59794,5.5228 10.59794,5.9744 0,0.7993 -26.00602,5.5813 -28.66667,5.2713 -0.73333,-0.085 -3.73897,-0.6337 -6.67921,-1.2182 z m 3668.01258,-8.5767 c -4.4,-0.8876 -10.1,-2.3 -12.6667,-3.1387 -2.5667,-0.8385 -7.5027,-1.8754 -10.9689,-2.3041 -3.4663,-0.4288 -6.6486,-1.3399 -7.0718,-2.0247 -2.2321,-3.6116 13.5944,-13.1492 22.0407,-13.2825 l 4.6667,-0.073 -2.9044,-2.4254 c -5.5838,-4.6626 -11.0956,-15.0021 -11.0956,-20.8137 0,-11.1416 7.0329,-11.7256 20.1385,-1.6723 2.6289,2.0167 5.3597,3.6667 6.0685,3.6667 0.7088,0 2.0434,-2.9443 2.9658,-6.5428 0.9222,-3.5985 2.8488,-7.6035 4.2812,-8.8997 2.449,-2.2164 2.8812,-2.2248 7.2509,-0.1411 4.9848,2.3771 9.9487,9.1881 9.9568,13.6621 0,1.5098 -0.876,3.9098 -1.9527,5.3334 -1.0766,1.4234 -1.9766,5.0181 -2,7.9881 -0.024,2.97 -0.6916,6.0492 -1.4852,6.8428 -2.4777,2.4777 1.6112,7.02 8.1095,9.0085 10.0024,3.061 16.2124,6.1116 15.6816,7.704 -0.2767,0.83 -4.0683,2.2566 -8.4256,3.17 -4.3575,0.9135 -10.5481,2.609 -13.7569,3.7678 -6.7194,2.4265 -17.3523,2.491 -28.8324,0.1752 z m -2462,-45.5973 c -9.5368,-1.4284 -19.8498,-3.8174 -24,-5.5594 -2.5667,-1.0774 -7.6667,-2.0338 -11.3334,-2.1253 -5.6416,-0.1409 -6.6666,-0.5625 -6.6666,-2.7419 0,-1.4702 2.4761,-4.464 5.7702,-6.9765 5.2319,-3.9905 6.6236,-4.4012 14.9132,-4.4012 12.1522,0 16.5247,-1.6611 15.467,-5.8755 -0.7142,-2.8454 -0.2864,-3.2321 4.1938,-3.791 5.8348,-0.7279 28.9964,2.4388 32.1544,4.3961 1.521,0.9427 -0.1646,1.0824 -5.6469,0.4683 -8.6021,-0.9638 -10.1279,-0.015 -10.1647,6.3242 -0.016,2.7454 0.7883,3.7184 3.6463,4.4123 4.8427,1.1756 19,7.8247 19,8.9235 0,0.4741 -2.25,1.1581 -5,1.5201 -2.75,0.362 -9.726,1.9249 -15.5021,3.4733 -5.7763,1.5484 -11.1763,2.7336 -12,2.6338 -0.8239,-0.1 -2.9979,-0.4063 -4.8312,-0.6808 z M 82.119688,1885.8807 c -0.548673,-1.4011 -1.531852,-5.7803 -2.18484,-9.7316 C 78.463671,1867.2468 75.719637,1864 69.666944,1864 c -2.529009,0 -6.359157,-1.2615 -8.535719,-2.8113 -3.619834,-2.5776 -3.775564,-3.0022 -1.872493,-5.1051 2.897813,-3.202 2.609595,-4.8035 -1.437444,-7.9868 -5.327229,-4.1904 -1.685485,-3.3037 4.979171,1.2123 3.488386,2.3637 7.624273,3.9856 10.200641,4 2.555441,0.015 5.447373,1.1382 7.048633,2.7396 2.872642,2.8726 2.468807,5.2846 -0.884781,5.2846 -1.610221,0 -1.445897,0.7952 0.822724,3.9812 3.15482,4.4306 5.563676,16.5335 4.085805,20.5286 -0.937392,2.534 -0.97583,2.5348 -1.953793,0.037 z M 5003.2674,1872.7119 c -1.699,-4.0663 -2.6678,-8.8039 -5.5514,-27.1476 -0.3834,-2.4398 -1.4684,-4.7316 -2.4108,-5.0934 -0.9425,-0.3616 -5.7346,0.5844 -10.6493,2.1024 -10.8412,3.3486 -10.392,3.3392 -8.7017,0.181 3.0602,-5.718 1.9358,-6.7543 -7.3283,-6.7543 -11.8761,0 -12.7985,-2.4187 -3.9065,-10.2433 6.202,-5.4575 8.3312,-6.3176 19.2817,-7.7892 18.2035,-2.4463 23.3673,-2.277 38,1.246 16.9748,4.0868 24.3191,6.979 26.0811,10.2712 2.3942,4.474 1.4034,5.182 -7.2516,5.182 -15.7892,0 -23.2139,6.1864 -16.9624,14.1337 7.4188,9.4316 -2.0304,28.5329 -14.115,28.5329 -3.9368,0 -4.8169,-0.627 -6.4858,-4.6214 z m -690.3579,-4.4447 c -2.8123,-3.1076 -6.2417,-12.8703 -6.2417,-17.7681 0,-4.2108 -0.3638,-4.4451 -3.9348,-2.534 -1.3344,0.7141 -5.795,1.6574 -9.9124,2.0962 -7.1755,0.7647 -7.4855,0.6692 -7.4703,-2.2984 0.013,-1.7029 0.9016,-6.3962 1.9841,-10.4296 1.0826,-4.0333 1.9755,-8.6105 1.9842,-10.1716 0.021,-3.771 -5.2464,-5.8572 -17.574,-6.9598 -8.7776,-0.7851 -9.6986,-1.1358 -9.2898,-3.5367 0.5931,-3.4848 3.903,-7.0989 8.8764,-9.6924 5.4932,-2.8644 24.8316,-6.2647 35.3366,-6.2132 17.1749,0.084 47.9578,9.9408 49.0977,15.7209 0.3513,1.7818 -0.7504,2.1862 -5.9553,2.1862 -6.0574,0 -16.5242,2.9756 -20.1424,5.7261 -2.2287,1.6943 -2.1032,6.2368 0.3333,12.0683 5.2188,12.4904 0.4216,26.8682 -10.9124,32.7056 -3.7221,1.917 -3.6161,1.9325 -6.1792,-0.8995 z m -2392.5733,-14.0828 -6.4224,-6.0075 -9.2898,1.1815 c -5.1092,0.6497 -11.3001,1.8897 -13.7573,2.7555 -6.5144,2.295 -25.814,0.828 -35.5323,-2.701 -4.4,-1.5977 -11.7314,-3.9508 -16.2922,-5.229 -10.0767,-2.824 -10.788,-3.447 -7.7586,-6.7944 4.1836,-4.6228 13.0515,-7.155 21.4035,-6.1115 10.9036,1.3624 13.1461,-0.5356 16.0217,-13.5596 1.2611,-5.7117 3.166,-13.2351 4.2331,-16.7184 1.7931,-5.8529 2.2677,-6.3333 6.2596,-6.3333 3.4319,0 5.4276,1.233 9.7111,6 3.4082,3.7929 6.5618,6.034 8.5733,6.0925 1.75,0.051 9.8883,0.2009 18.0849,0.3333 13.2444,0.214 15.3219,0.5747 18.6667,3.2403 2.07,1.6499 8.2636,5.3473 13.7636,8.2167 10.0651,5.251 10.1849,5.6948 2,7.4017 -3.6171,0.7544 -24.8251,4.6245 -25.6937,4.6888 -0.1983,0.015 0.9524,2.5767 2.5569,5.6933 3.3387,6.4851 4.3683,22.3114 1.5156,23.2979 -0.8916,0.3084 -4.5113,-2.1427 -8.0437,-5.4468 z m -14.1392,-19.1289 c -3.9147,-7.7735 -5.519,-9.6131 -10.2384,-11.7414 -5.4915,-2.4762 -5.631,-2.4762 -7.4436,0 -1.9602,2.6806 -2.1152,4.7971 -0.7143,9.7472 0.6492,2.2939 3.5479,4.168 11.5337,7.4571 5.8667,2.4163 10.8552,4.2489 11.0856,4.0727 0.2304,-0.1763 -1.67,-4.4684 -4.223,-9.5383 z m 104.4708,-36.2696 c -4.0334,-1.3519 -8.9834,-2.8432 -11,-3.314 -2.0167,-0.4708 -3.6667,-1.4308 -3.6667,-2.1332 0,-2.3258 6.4044,-5.5223 12.9164,-6.447 5.7371,-0.8146 6.4616,-1.2986 6.8388,-4.5681 0.3443,-2.984 1.0871,-3.6569 4.0367,-3.6569 4.8416,0 9.5368,3.4744 9.5618,7.0756 0.029,4.1716 1.1207,5.3378 8.9406,9.5532 3.8284,2.0638 6.643,4.2666 6.2545,4.8952 -1.3713,2.2188 -26.1345,1.1922 -33.8821,-1.4048 z m 1835.0529,-12.8868 c -5.2876,-0.9618 -10.7983,-2.3826 -12.2457,-3.1572 -1.4476,-0.7747 -5.0223,-1.4086 -7.9439,-1.4086 -10.3925,0 -11.8243,-2.1202 -5.4517,-8.073 3.384,-3.1612 3.8388,-4.2572 2.6714,-6.4384 -1.8868,-3.5254 -0.4897,-6.6691 3.3974,-7.6446 3.4853,-0.8748 33.6385,4.3791 35.9561,6.265 0.7901,0.6429 5.5901,2.4438 10.6667,4.002 24.0445,7.38 30.6396,14.5226 13.4544,14.5716 -3.0567,0.013 -8.8576,0.9016 -12.891,1.9841 -8.6004,2.3084 -14.4864,2.2869 -27.6137,-0.1013 z m 480.514,-10.0068 c -3.7935,-2.2915 -7.5527,-12.6538 -8.4525,-23.2996 -0.7479,-8.8474 -1.1796,-9.9656 -4.9138,-12.7264 -2.6296,-1.9442 -6.6253,-3.2366 -11.1718,-3.6136 -3.893,-0.3228 -7.4187,-1.1382 -7.8351,-1.8118 -2.7471,-4.445 12.3721,-14.0141 19.8576,-12.5678 2.3551,0.4549 9.5872,1.405 16.0713,2.1114 14.2492,1.552 30.9608,5.8763 40.811,10.56 7.9282,3.7699 9.2446,5.8886 4.0664,6.5442 -9.5066,1.2036 -13.3334,2.9828 -13.3334,6.1993 0,5.1292 -6.114,9.0129 -13.3594,8.486 l -6.0603,-0.4407 0.043,7.6266 c 0.033,5.8909 -0.5648,8.2353 -2.6282,10.3009 -3.2857,3.2896 -9.8289,4.6044 -13.095,2.6315 z m -727.2413,-8.4843 c -3.8543,-0.9852 -9.4164,-2.7551 -12.3603,-3.9329 -2.944,-1.178 -8.0051,-2.1418 -11.2469,-2.1418 -7.2739,0 -8.6155,-1.8458 -4.5248,-6.2253 4.7824,-5.12 10.1669,-7.3832 20.1812,-8.4825 6.361,-0.6983 9.6426,-1.718 10.8525,-3.3727 2.7747,-3.7945 19.2892,-0.5915 28.106,5.4513 3.6667,2.5131 8.7667,5.2342 11.3333,6.047 15.0972,4.7808 15.403,6.1518 2.3334,10.4626 -11.8232,3.8998 -33.7834,4.9783 -44.6744,2.1943 z m -576.3256,-13.802 c 0,-0.7 1.65,-1.6048 3.6666,-2.0108 3.9647,-0.798 9.4563,-8.3552 7.4798,-10.2931 -0.6306,-0.6181 -3.5464,-1.314 -6.4798,-1.5464 -4.1942,-0.3321 -5.3333,-0.9612 -5.3333,-2.9452 0,-7.6969 18.3669,-11.2358 35.1449,-6.7717 10.6772,2.8409 27.0663,10.7779 24.1884,11.714 -11.0574,3.5972 -19.5649,4.9937 -25.7332,4.2243 -6.2772,-0.783 -7.2345,-0.544 -10.1146,2.5245 -2.1492,2.2899 -5.177,3.6512 -9.3334,4.1963 -3.3837,0.4438 -7.8021,1.1161 -9.8188,1.4938 -2.0166,0.3778 -3.6666,0.1147 -3.6666,-0.5857 z m -1308.77,-39.9393 c -0.5806,-1.2834 -1.3947,-6.5334 -1.8094,-11.6667 l -0.754,-9.3333 -7.563,-0.6742 c -8.8291,-0.7869 -9.8399,-1.4589 -7.8338,-5.2073 4.4202,-8.2591 27.3892,-11.0304 44.4388,-5.3619 10.3194,3.4308 27.6247,11.8266 27.6247,13.4023 0,0.6459 -2.1,1.1744 -4.6667,1.1744 -4.5556,0 -4.6666,0.1267 -4.6666,5.3333 0,4.9394 -0.2708,5.3303 -3.6667,5.2918 -2.0167,-0.023 -6.0667,-1.5199 -9,-3.3266 -7.5796,-4.6684 -11.8045,-4.3416 -15.2151,1.1768 -6.3617,10.2935 -14.4089,14.6731 -16.8882,9.1914 z m 3322.005,-22.8378 c -6.8414,-4.8028 -8.3765,-5.2934 -19.3333,-6.1789 -6.546,-0.5289 -13.9251,-1.7916 -16.3979,-2.8059 -2.4729,-1.0142 -8.6229,-1.8441 -13.6666,-1.8441 -11.3898,0 -11.9436,-1.8979 -2.9878,-10.238 7.796,-7.26 13.206,-8.7492 32.4839,-8.942 14.3692,-0.1437 16.2721,0.1601 30.2655,4.8327 15.4122,5.1464 25.7345,9.8282 25.7345,11.6726 0,1.4896 -3.5543,2.6747 -8.0223,2.6747 -2.0922,0 -5.3712,0.5957 -7.2864,1.324 -3.0685,1.1667 -3.3836,1.8501 -2.6516,5.7521 0.9515,5.0716 -0.794,7.1844 -6.8334,8.2723 -3.0183,0.5436 -5.5128,-0.4536 -11.3046,-4.5195 z m -2899.3562,-74.474 c -3.9054,-3.9053 -8.7727,-16.1154 -9.8792,-24.7826 -2.1512,-16.8499 -3.9402,-18.8242 -18.9855,-20.9507 -4.3795,-0.6191 -8.2539,-1.4169 -8.6101,-1.7731 -1.9884,-1.9885 1.9058,-6.4501 8.2494,-9.4512 6.7896,-3.212 8.112,-3.3662 24.2638,-2.8308 15.0265,0.498 18.768,1.1228 31.0828,5.1904 12.8594,4.2474 28.1521,9.9526 29.0313,10.8306 0.2007,0.2002 0,1.3265 -0.4559,2.5026 -0.5633,1.4679 -3.2908,2.418 -8.698,3.0298 -4.3326,0.4901 -7.8774,1.2166 -7.8774,1.6144 0,0.3977 1.534,4.5576 3.4089,9.244 3.6163,9.0394 3.9631,17.6976 0.7511,18.7542 -1.0592,0.3484 -7.1564,-4.8421 -14.3667,-12.2302 -7.626,-7.8142 -13.5752,-12.8356 -15.2069,-12.8356 -2.3408,0 -2.4832,0.3681 -1.1247,2.9066 2.0997,3.9234 0.5537,22.1296 -2.1309,25.0962 -1.0987,1.214 -1.9975,2.6528 -1.9975,3.1974 0,1.109 -3.442,4.7998 -4.4761,4.7998 -0.3667,0 -1.707,-1.0403 -2.9784,-2.3118 z m -1497.57915,-9.6244 c -2.95172,-2.1382 -5.7621,-4.5273 -6.24526,-5.3092 -0.48316,-0.7817 -2.31209,-1.4213 -4.06429,-1.4213 -1.75219,0 -8.16679,-1.5651 -14.25464,-3.478 -9.01903,-2.834 -12.0926,-4.54 -16.59719,-9.2124 -6.39942,-6.6379 -8.62026,-7.9577 -15.47164,-9.1945 -2.75,-0.4964 -5,-1.422 -5,-2.057 0,-0.6349 1.83875,-2.7016 4.08612,-4.5926 2.68754,-2.2615 3.94255,-4.415 3.66667,-6.2919 -0.89196,-6.068 3.14409,-5.922 17.14029,0.6207 7.30171,3.413 14.30404,6.2057 15.56075,6.2057 1.25672,0 4.21871,-1.7605 6.58221,-3.9123 2.36352,-2.1517 6.57023,-5.834 9.34826,-8.1828 2.77804,-2.3489 6.55521,-6.8374 8.39373,-9.9746 3.80511,-6.493 7.22197,-9.9392 7.22197,-7.2843 0,0.9016 0.88264,1.3007 1.96142,0.8867 3.12936,-1.201 6.03858,2.8813 6.03858,8.4733 0,4.4812 -0.77408,5.7831 -5.97034,10.0411 -4.88083,3.9994 -10.02966,10.9713 -10.02966,13.5809 0,0.3035 1.25104,0.1547 2.78011,-0.3307 1.83499,-0.5824 3.7614,0 5.66667,1.6996 1.5876,1.42 6.93656,4.806 11.88656,7.5244 10.13346,5.565 11.61769,8.1308 4,6.9151 -6.79538,-1.0845 -9.64839,0.7757 -6.30199,4.1092 2.39392,2.3848 2.23367,2.4656 -5.64883,2.8479 l -8.11264,0.3934 0.6841,5.1003 c 0.37626,2.8052 0.0905,5.4673 -0.63503,5.9157 -0.72553,0.4484 -3.7342,-0.9342 -6.68593,-3.0724 z m -0.29968,-28.0638 c 0,-0.7334 -1.23542,-1.3334 -2.74536,-1.3334 -1.50995,0 -2.37454,0.6 -1.92131,1.3334 0.45323,0.7333 1.68864,1.3333 2.74536,1.3333 1.05672,0 1.92131,-0.6 1.92131,-1.3333 z m 3595.33333,15.803 c -5.8667,-1.4473 -14.8667,-2.9558 -20,-3.3524 -5.1333,-0.3964 -9.8389,-1.1954 -10.4568,-1.7758 -3.8504,-3.6162 10.3064,-14.2476 21.3696,-16.0482 9.4219,-1.5334 10.8223,-2.7976 7.9521,-7.178 -3.2378,-4.9414 -2.9644,-19.3865 0.4955,-26.1684 2.9348,-5.7528 6.1199,-6.6749 12.6997,-3.6769 3.291,1.4995 3.8204,1.2403 8.1734,-4 7.9748,-9.6007 13.5724,-6.6992 15.8056,8.1927 0.7982,5.323 0.504,7.0496 -1.713,10.048 -2.2252,3.0098 -2.6158,5.3338 -2.3157,13.7768 0.1985,5.5858 0.6969,10.6996 1.1073,11.3637 0.4106,0.6641 4.9866,2.8711 10.1691,4.9044 5.1825,2.0333 11.6163,4.7639 14.2971,6.0677 4.6586,2.266 4.75,2.4375 2.0662,3.8739 -1.5445,0.8265 -4.2516,1.5028 -6.0158,1.5028 -1.7643,0 -7.8996,1.2 -13.6343,2.6667 -12.9868,3.3214 -25.9988,3.2574 -40,-0.197 z m -3395.7778,-20.059 c -1.82276,-3.1592 -4.35297,-9.644 -5.62269,-14.4107 -2.9318,-11.0063 -5.24895,-13.4616 -13.45016,-14.2521 -10.74036,-1.0352 -11.07768,-1.4538 -5.26054,-6.527 5.12495,-4.4694 5.44756,-4.554 17.33334,-4.5384 13.37112,0.017 22.12824,1.9063 33.26529,7.175 4.06015,1.9206 9.06144,4.1857 11.11399,5.0333 l 3.7319,1.5409 -5.74892,1.3243 -5.74893,1.3243 0.86612,5.1265 c 0.47637,2.8196 0.36339,5.1156 -0.25107,5.1023 -0.61446,-0.013 -3.78548,-1.8322 -7.04672,-4.0418 -3.26124,-2.2097 -6.7603,-3.6988 -7.77572,-3.309 -1.0154,0.3896 -3.01822,0.7084 -4.45072,0.7084 -2.16185,0 -2.36993,0.4384 -1.22428,2.579 3.11462,5.8196 -0.21554,20.8418 -4.97176,22.4272 -0.79476,0.265 -2.93636,-2.1032 -4.75913,-5.2622 z m 2347.9758,-2.2994 c -4.2912,-2.2612 -9.2057,-4.1113 -10.9213,-4.1113 -4.6218,0 -5.5204,-2.7299 -1.8222,-5.5348 1.7667,-1.34 4.2383,-3.4227 5.4924,-4.6281 2.0884,-2.0075 2.9634,-2.0199 10.3926,-0.1486 l 8.1121,2.0435 2.8732,-3.8861 c 3.1279,-4.2307 7.7476,-5.8666 20.5021,-7.2598 13.7708,-1.5042 11.6183,2.4774 -2.9018,5.3678 -2.5435,0.5062 -4.9236,2.248 -6.3334,4.6344 -2.912,4.9296 -2.9444,4.8041 1.7416,6.745 2.2,0.9114 4,2.0716 4,2.5786 0,1.421 -12.6521,6.615 -18.2964,7.5112 -4.0325,0.6401 -6.5928,-0.02 -12.8389,-3.3118 z m -538.198,-62.977 c 0,-0.3138 1.2,-2.9242 2.6667,-5.801 1.4666,-2.8768 2.6666,-5.9882 2.6666,-6.9144 0,-2.0706 -5.7484,-5.1162 -12,-6.3578 -8.9882,-1.7851 -9.436,-2.0446 -8.0378,-4.657 1.9726,-3.686 11.1636,-6.7374 20.2932,-6.7374 5.5017,0 8.9457,-0.6736 10.4626,-2.0466 3.0936,-2.7996 12.6256,-0.6341 16.74,3.8031 1.6726,1.8037 7.2787,4.8989 12.4582,6.8781 10.5845,4.0446 12.5666,7.3563 4.4172,7.3798 -2.75,0.013 -7.9454,0.908 -11.5452,2 -3.5999,1.0921 -8.6062,1.9856 -11.125,1.9856 -3.4881,0 -4.749,0.6482 -5.2908,2.72 -0.9352,3.5762 -6.9348,6.5686 -15.1108,7.537 -3.6272,0.4296 -6.5949,0.5243 -6.5949,0.2106 z m 136,-32.9934 c -5.5,-1.2616 -11.9203,-3.3093 -14.2671,-4.5506 -2.3469,-1.2414 -6.0578,-2.257 -8.2465,-2.257 -2.1887,0 -5.5848,-0.6104 -7.5469,-1.3564 -3.3332,-1.2672 -3.4396,-1.5518 -1.6199,-4.3333 2.9081,-4.4452 11.9504,-8.9767 19.7573,-9.9012 6.5612,-0.7771 6.7828,-0.9279 4.3331,-2.9473 -4.4563,-3.6738 -7.0767,-9.1671 -7.0767,-14.8359 0,-12.8508 6.5828,-14.2987 18,-3.9592 4.0488,3.6667 7.5796,6.6667 7.846,6.6667 0.2664,0 3.6222,-4.7792 7.4571,-10.6206 9.8244,-14.9644 13.8401,-15.6353 18.4632,-3.0853 2.4459,6.6395 2.5424,7.864 0.8743,11.0899 -1.0315,1.9944 -2.7975,3.98 -3.9246,4.4125 -1.1272,0.4325 -2.0493,2.3351 -2.0493,4.2279 0,1.8926 -0.8233,5.0616 -1.8296,7.0418 -2.976,5.8563 -0.994,8.182 11.0499,12.9664 12.638,5.0206 15.0922,6.7786 12.1018,8.6691 -1.0938,0.6916 -3.7888,1.2737 -5.9888,1.2937 -2.2,0.02 -7.3,0.922 -11.3333,2.0046 -9.5143,2.5537 -23.4629,2.35 -36,-0.5258 z M 1278.6678,1227.1583 c -9.2612,-1.8148 -25.2377,-7.468 -29.661,-10.4953 -2.7469,-1.8799 -8.4469,-4.0468 -12.6667,-4.8151 -4.2198,-0.7684 -8.2169,-1.923 -8.8825,-2.5659 -1.8277,-1.7655 1.534,-5.0633 9.0372,-8.8655 6.862,-3.4772 7.8651,-3.5155 24.0216,-0.916 3.7362,0.6011 4.9173,0.4055 4.2333,-0.7012 -0.5898,-0.9544 0.5816,-2.0684 3.0969,-2.9452 2.225,-0.7757 4.3886,-2.4912 4.8079,-3.8123 1.3043,-4.1095 -1.9619,-9.1659 -6.5043,-10.0696 -7.8975,-1.571 -21.5221,-6.3562 -30.8111,-10.8213 -5.1308,-2.4664 -10.2913,-4.4842 -11.4677,-4.4842 -1.1765,0 -4.0199,-0.6557 -6.3187,-1.4571 -3.635,-1.2672 -3.9944,-1.8031 -2.7581,-4.1133 2.7891,-5.2114 11.353,-7.7019 26.593,-7.7337 16.3796,-0.034 25.3772,1.9833 38.3643,8.6019 7.7813,3.9656 10.5973,4.7022 17.976,4.7022 9.8082,0 13.1879,1.9711 11.9619,6.9765 -0.9812,4.0063 -2.8762,6.2936 -7.6006,9.1742 -3.7681,2.2975 -3.9277,2.8035 -4.3418,13.7625 l -0.43,11.3774 14.715,6.9021 c 8.0932,3.7962 14.4997,7.5558 14.2367,8.3547 -0.2629,0.7989 -5.2308,1.8199 -11.0397,2.269 -24.2119,1.8715 -33.4095,2.2929 -36.5616,1.6752 z m 2856.089,-17.0745 c -1.5812,-3.6206 -3.9777,-7.3553 -5.3257,-8.2995 -2.8675,-2.0085 -3.8325,-6.0616 -5.386,-22.6227 -1.1759,-12.5354 -3.674,-19.5245 -7.7245,-21.6104 -6.4652,-3.3296 -20.918,-7.2635 -31.449,-8.5601 -8.855,-1.0903 -16.704,-1.0383 -31.342,0.2076 -10.7406,0.9141 -26.7285,2.1824 -35.5285,2.8183 -8.8,0.636 -24.1,2.1499 -34,3.3643 -25.2573,3.0983 -54.2916,2.9784 -64.5633,-0.2665 -4.3431,-1.3721 -8.1174,-3.1569 -8.3872,-3.9662 -1.1307,-3.3923 11.4332,-4.6622 30.2536,-3.0578 16.6237,1.4171 20.4042,1.2897 42.146,-1.4199 13.1364,-1.6371 24.3718,-3.2665 24.9678,-3.6208 0.596,-0.3543 8.996,-1.7503 18.6667,-3.1023 9.6707,-1.3519 22.9831,-3.5123 29.5831,-4.8008 19.5246,-3.8118 48.9716,-3.3406 71.3333,1.1414 17.2975,3.467 18.9367,3.5652 42,2.5147 13.2,-0.6013 25.7395,-1.7971 27.8655,-2.6574 2.126,-0.8603 10.226,-1.9124 18,-2.338 15.484,-0.8475 34.6302,1.9539 55.4678,8.116 6.1076,1.8062 16.0806,3.4796 23.3334,3.9153 6.9666,0.4185 16.8666,1.9051 22,3.3036 5.1333,1.3985 11.7881,2.9054 14.7885,3.3486 3.0004,0.4433 10.8004,2.3933 17.3333,4.3332 9.6594,2.8683 15.3651,3.6318 30.5448,4.0875 18.2116,0.5466 22.7182,1.5699 19.7935,4.4946 -4.1219,4.1219 -52.7593,5.7892 -78.4601,2.6896 -23.3143,-2.8118 -57.1683,-7.9539 -62,-9.4173 -2.5667,-0.7773 -10.3667,-2.0168 -17.3334,-2.7543 -14.6629,-1.5524 -19.0162,-2.1159 -25.0192,-3.2386 -5.6346,-1.0537 -10.9589,2.0565 -16.3349,9.5424 l -4.0887,5.6934 3.3334,0.8366 c 4.8918,1.2278 6.8686,4.0537 4.6801,6.6906 -1.6344,1.9695 -5.7332,2.1179 -11.904,0.4311 -2.0849,-0.5699 -2.1273,-0.1746 -0.6249,5.8115 0.9068,3.6132 0.8601,3.6418 -5.9415,3.6418 -4.7163,0 -8.9621,1.0675 -13.6057,3.4206 -3.7127,1.8813 -11.2982,4.5838 -16.8567,6.0054 -12.0823,3.0901 -14.9387,5.3238 -15.0649,11.7807 -0.052,2.6363 -0.5847,5.9933 -1.1847,7.46 -0.94,2.2973 -1.4893,1.7548 -3.9659,-3.9162 z m -3029.7832,-35.1082 c -4.667,-4.8849 -11.2628,-19.2867 -12.9678,-28.3147 -1.3071,-6.921 -4.9038,-11.881 -8.676,-11.9646 -0.7359,-0.016 -5.8075,-2.1979 -11.2703,-4.848 -5.4628,-2.6501 -13.1102,-5.2496 -16.9943,-5.7767 -3.884,-0.5271 -7.411,-1.3074 -7.8377,-1.7341 -1.7134,-1.7134 2.377,-6.1802 8.3979,-9.1708 5.8278,-2.8946 7.825,-3.1406 23.2415,-2.8631 11.1299,0.2003 19.0653,1.0291 23.3333,2.4368 9.2785,3.0605 34.9351,16.0886 40.7025,20.6682 2.6959,2.1407 6.4459,4.5959 8.3333,5.4558 1.8875,0.86 3.4318,2.4499 3.4318,3.5332 0,1.6034 -1.3661,1.809 -7.3482,1.1059 -8.477,-0.9963 -17.9919,0.2004 -18.7003,2.3518 -0.2676,0.8129 -1.1139,3.9336 -1.8806,6.9348 -1.3719,5.3704 -5.2544,11.1558 -7.5607,11.2663 -1.262,0.061 -7.1769,8.7467 -7.1769,10.5395 0,0.5926 -0.7983,1.7401 -1.7739,2.5498 -1.3547,1.1243 -2.5962,0.6115 -5.2536,-2.1701 z m 1307.6942,-31.8743 c -7.8907,-0.9847 -23.6595,-4.7071 -28.4507,-6.716 -2.6855,-1.1261 -8.7032,-2.524 -13.3728,-3.1065 -4.6697,-0.5826 -9.1088,-1.6778 -9.8649,-2.4339 -4.2498,-4.2497 12.5585,-14.7837 23.8216,-14.9294 4.9716,-0.064 5.8602,-0.3565 3.7176,-1.2223 -7.5658,-3.0569 -10.925,-14.0914 -6.1027,-20.0466 2.378,-2.9367 2.5269,-2.9497 9.7517,-0.8493 8.1571,2.3713 18.4808,9.1739 19.4298,12.8028 0.4228,1.617 2.9886,2.8843 8.1766,4.0387 9.2792,2.0647 15.1655,5.9467 14.6215,9.6429 -0.3297,2.2401 1.3561,3.3211 10.2723,6.5871 17.0658,6.2513 18,6.6628 18,7.9283 0,0.6616 -1.65,1.2161 -3.6667,1.2322 -2.0167,0.016 -6.3205,1.2332 -9.564,2.7047 -9.0101,4.0877 -24.3805,5.9133 -36.7693,4.3673 z m 1960.3352,-22.768 c -4.7,-4.9279 -8.676,-14.6142 -10.3818,-25.2914 -0.7729,-4.8378 -2.001,-11.5743 -2.7292,-14.9699 l -1.3241,-6.1737 -8.95,-2.2937 c -4.9225,-1.2615 -12.3647,-2.2886 -16.5381,-2.2825 -4.1734,0.01 -7.969,-0.6053 -8.4347,-1.3587 -1.5307,-2.4767 3.9337,-9.6832 10.3168,-13.6059 5.0745,-3.1186 8.7488,-4.1119 19.3195,-5.2229 17.2518,-1.8131 24.6005,-1.0099 43.7197,4.7786 19.9733,6.047 30.1888,10.1869 29.5876,11.9905 -0.2551,0.7654 -3.1143,1.8441 -6.3537,2.3971 -3.2395,0.553 -7.9923,1.833 -10.5619,2.8444 -2.5696,1.0115 -7.522,2.2543 -11.0053,2.7619 -3.4834,0.5076 -6.3334,1.2105 -6.3334,1.5619 0,0.3515 1.3146,2.417 2.9212,4.5902 5.0415,6.8189 3.0462,23.7817 -3.4018,28.9199 -1.6248,1.2948 -3.7642,4.3281 -4.7539,6.7407 -1.9267,4.696 -6.0299,8.2802 -9.4793,8.2802 -1.1663,0 -3.6943,-1.65 -5.6176,-3.6667 z m -632.2862,-55.4046 c -6.6325,-10.1226 -10.4238,-32.4911 -10.5532,-62.262 -0.108,-24.7799 1.43,-31.88442 8.6956,-40.17809 2.8051,-3.20206 5.1096,-6.18093 5.1211,-6.61969 0.064,-2.42869 -12.916,-5.55617 -27.3125,-6.58113 -13.3143,-0.94792 -17.1723,-0.77588 -22.9839,1.02493 -10.4901,3.2506 -11.6192,-0.70683 -1.9441,-6.81445 2.8597,-1.80526 7.1532,-5.74894 9.5409,-8.76374 2.3877,-3.01481 6.1833,-6.43394 8.4345,-7.59808 2.2511,-1.16414 12.7734,-3.19969 23.3827,-4.52345 23.4149,-2.92157 24.502,-3.62999 25.3216,-16.50265 0.5787,-9.08635 0.044,-10.34014 -10.458,-24.5454 -4.2628,-5.7657 -2.5928,-11.05362 6.5388,-20.70555 10.8876,-11.508 20.8209,-17.64444 28.2532,-17.45397 8.6268,0.22109 14.5809,1.86832 14.5809,4.03385 0,1.04172 1.2,1.89405 2.6667,1.89405 3.776,0 3.3104,3.27864 -0.7267,5.11808 -3.2769,1.49307 -3.3706,1.87366 -2.7298,11.09195 0.5278,7.59541 1.8673,12.15884 6.5558,22.33456 3.241,7.03381 6.9704,16.24907 8.2876,20.47836 1.3174,4.22928 3.1942,8.35275 4.1708,9.16325 0.9766,0.81051 1.7756,2.57196 1.7756,3.91432 0,5.84018 3.1671,9.14931 13.8455,14.46676 5.9516,2.9637 15.3212,6.52987 20.8212,7.92483 5.5,1.39496 12.25,3.86416 15,5.48712 4.4416,2.62129 5,3.54155 5,8.24013 0,2.90911 0.6556,6.51426 1.4568,8.01144 2.3731,4.43411 -0.1503,4.92128 -12.1235,2.34067 -14.4344,-3.11109 -14.5578,-3.11023 -13.7196,0.0952 0.4819,1.84293 0.041,2.66667 -1.4277,2.66667 -2.5321,0 -19.3577,-6.21 -21.4143,-7.90355 -0.791,-0.65152 -6.4406,-1.37167 -12.5546,-1.60033 -9.8024,-0.3666 -11.2847,-0.11494 -12.5403,2.12877 -0.7832,1.39949 -3.4309,4.5514 -5.8837,7.00425 -2.4528,2.45287 -4.4598,4.99688 -4.4598,5.65339 0,0.65652 -1.0404,2.23404 -2.312,3.50561 -1.2714,1.27158 -2.343,2.96443 -2.381,3.76191 -0.068,1.4288 -0.736,2.93191 -9.5356,21.46178 -2.441,5.1398 -4.438,10.4109 -4.438,11.7136 0,1.9828 -0.4499,2.1276 -2.7632,0.8896 -2.6679,-1.4278 -2.731,-1.2571 -1.8291,4.9531 l 0.9341,6.4319 -3.499,-3.2275 c -1.9244,-1.7751 -3.825,-2.9015 -4.2234,-2.5031 -0.3984,0.3984 0.8071,4.7929 2.6788,9.7657 1.8718,4.9727 3.1666,9.2778 2.8775,9.5669 -0.2892,0.2892 -2.9931,-2.353 -6.0088,-5.8715 -4.9775,-5.8074 -5.474,-6.0899 -5.3848,-3.0639 0.055,1.8334 1.1003,6.3224 2.3248,9.9756 1.7139,5.113 3.0887,6.9436 5.9716,7.9516 2.7847,0.9737 4.0201,0.8646 4.8175,-0.4255 1.7932,-2.9016 7.3773,-1.2591 7.8836,2.3188 0.707,4.9979 -1.8932,6.4973 -5.4588,3.1475 l -3.048,-2.8633 0.4888,5.1249 c 0.5992,6.2836 -1.363,7.8024 -5.0155,3.8819 l -2.7461,-2.9476 v 3.506 c 0,5.7949 -2.7575,5.8745 -7.5435,0.2176 l -4.4168,-5.2208 -0.02,5 c -0.023,5.8537 -2.8093,6.7537 -5.9708,1.9287 z m 11.4611,-21.9155 c -1.4567,-2.8554 -3.5924,-5.9749 -4.746,-6.9323 -1.8328,-1.5211 -2.0975,-1.207 -2.0975,2.4887 0,5.0101 3.0624,11.434 6.3334,13.2851 3.4833,1.9713 3.7417,-2.5071 0.5101,-8.8415 z m -8.1768,7.6839 c 0,-1.759 -6.5344,-19.0272 -7.5521,-19.9576 -2.0584,-1.882 0.8404,16.3341 2.9746,18.6923 2.5143,2.7784 4.5775,3.3486 4.5775,1.2653 z m 1148.1877,-20.0597 c -4.2258,-1.9175 -8.6992,-2.6374 -16.3896,-2.6374 -11.8249,0 -26.4762,-2.6487 -40.4648,-7.3154 -5.1333,-1.7125 -12.8185,-3.5147 -17.0784,-4.0048 -7.3792,-0.8492 -7.7256,-1.0558 -7.3333,-4.3747 0.3137,-2.6545 2.2599,-4.5612 8.1777,-8.0117 9.2211,-5.37657 20.4938,-7.30864 43.5674,-7.4672 13.8698,-0.0953 16.0332,0.22571 22.6666,3.3635 4.0334,1.908 10.6334,4.5252 14.6667,5.8161 4.0333,1.2909 7.9333,2.7984 8.6667,3.35 0.7333,0.5516 3.2332,1.4089 5.5553,1.905 2.322,0.4962 4.5497,1.7563 4.9503,2.8003 0.8096,2.1096 -2.9222,4.6056 -6.8856,4.6056 -1.4055,0 -4.3676,0.6317 -6.5827,1.4039 -3.8273,1.3342 -3.994,1.6981 -3.3588,7.3333 0.7907,7.0148 -0.7461,7.504 -10.1575,3.2335 z M 4.0448299,997.66667 C 1.4099307,992.80667 0.03095076,988.53565 0.27801777,986 c 0.37994994,-3.89943 0.49514944,-3.81563 4.58200673,3.33333 4.5268816,7.91868 6.8909185,15.99997 4.6804946,15.99997 -0.7365206,0 -3.2095807,-3.45 -5.4956892,-7.66663 z M 20.341299,982.33333 C 15.472396,977.1004 5.3344333,959.57739 5.3344333,956.39464 c 0,-5.92321 3.8830831,-2.9816 11.9148857,9.02607 5.308377,7.93612 8.085114,13.43112 8.085114,16 0,4.69258 -1.261582,4.92317 -4.993134,0.91262 z M 2212.5714,904.66687 c -10.391,-2.80287 -20.6538,-7.77454 -26.921,-13.04152 -3.8968,-3.27494 -8.0108,-5.25987 -13.0848,-6.31323 -10.9632,-2.27593 -11.1218,-6.59284 -0.4428,-12.04092 8.7723,-4.47528 14.7048,-4.6706 23.2358,-0.76503 8.2126,3.75994 10.2488,3.56224 9.6773,-0.93968 -0.2025,-1.5949 1.3119,-7.19122 3.3653,-12.43626 2.8824,-7.36248 5.3718,-11.08587 10.9202,-16.33334 8.4905,-8.02997 12.0313,-8.57345 17.863,-2.74178 6.6236,6.62358 8.6484,17.38738 4.2846,22.77649 -1.7512,2.1626 -2.3234,4.41345 -1.8552,7.29817 0.3722,2.29414 -0.029,5.4918 -0.8938,7.10592 -2.2998,4.29722 -0.4073,5.83459 14.1035,11.45708 6.9731,2.70182 14.2907,6.30107 16.2612,7.99834 l 3.5831,3.08592 -3.3334,0.69542 c -1.8333,0.38248 -5.7333,0.99354 -8.6666,1.3579 -2.9334,0.36437 -9.5334,1.59118 -14.6667,2.72625 -11.3633,2.51263 -24.3647,2.55551 -33.4297,0.11027 z M 5.6001099,828.66667 l -5.69171526,-5.33334 0.37968601,-24.3721 0.37968602,-24.37212 7.00000003,13.39482 c 3.8500003,7.36715 7.0000003,14.03734 7.0000003,14.82264 0,0.92082 -1.845239,1.11607 -5.1965002,0.54988 -3.0716585,-0.51896 -5.5403233,-0.32162 -6.0373528,0.48259 -0.4624691,0.74829 1.3070927,6.85739 3.9323593,13.57577 6.1801857,15.81588 5.7858167,18.32832 -1.7661634,11.25186 z M 0.0011,764.56325 c 0,-6.61246 1.6373112,-6.81138 3.1483007,-0.38248 0.5448348,2.31814 0.149645,4.07536 -1.161189,5.16326 C 0.27433811,770.76641 0.0011,770.10904 0.0011,764.56325 Z m 4908.6667,-4.61194 c -13.0687,-2.24403 -26.7775,-5.54991 -34,-8.1991 -4.0334,-1.47941 -10.6582,-3.14872 -14.7219,-3.70956 -14.3472,-1.98009 -15.8155,-3.48924 -10.0551,-10.33508 5.1559,-6.12748 15.0507,-10.7866 24.4574,-11.51612 4.5622,-0.35381 8.5973,-0.1541 8.9668,0.4438 0.7802,1.26234 8.1042,-0.18308 12.2965,-2.42673 6.4264,-3.43935 27.8981,-0.19351 39.6131,5.98823 24.3876,12.86882 32.3621,19.42982 27.3678,22.51645 -0.7746,0.47883 -4.5246,1.34159 -8.3333,1.91724 -3.8085,0.57567 -11.1247,1.96072 -16.258,3.07789 -13.3867,2.91339 -21.7187,3.5505 -29.3333,2.24298 z M 394.0011,662.62939 c -2.93333,-0.59314 -10.43333,-3.01948 -16.66667,-5.39187 -20.33977,-7.74129 -24.61909,-9.14955 -28,-9.21441 -1.83333,-0.0352 -4.20948,-0.61812 -5.28032,-1.29546 -1.67756,-1.0611 -1.62738,-1.58466 0.36266,-3.78364 1.2703,-1.40366 5.33613,-4.19934 9.03518,-6.21261 5.81766,-3.16637 7.92855,-3.5978 15.63735,-3.19595 9.90183,0.51616 9.52911,1.03258 6.88213,-9.53545 -0.82654,-3.3 -1.12768,-8.4 -0.66918,-11.33333 1.7602,-11.26124 7.5847,-14.34252 15.12236,-8 5.35958,4.50978 8.34534,4.17173 11.92208,-1.34984 4.34658,-6.71003 8.55084,-6.34146 12.93154,1.13365 3.99418,6.81555 4.32408,12.31552 0.96755,16.13025 -3.44808,3.91878 -6.16275,15.83534 -4.37033,19.18448 0.77258,1.44359 5.31356,4.45388 10.09105,6.68954 9.12793,4.27148 18.0346,10.38068 18.0346,12.37017 0,0.64629 -2.55,1.18688 -5.66667,1.20131 -3.11666,0.0144 -10.46666,0.8935 -16.33333,1.95349 -11.79799,2.13165 -16.09561,2.24799 -24,0.64967 z m 3800,-47.44426 c -7.8555,-2.02706 -20.9531,-6.73648 -28,-10.06782 -4.4,-2.08003 -9.9109,-3.78235 -12.2465,-3.78292 -5.7992,-10e-4 -11.0868,-2.1871 -11.0868,-4.58278 0,-2.61988 4.7406,-6.99002 11.3333,-10.44758 4.2108,-2.20838 7.7888,-2.80534 17,-2.83627 11.162,-0.0375 11.6667,-0.16763 11.6667,-3.00812 0,-1.63291 0.6022,-3.34111 1.3382,-3.796 0.736,-0.45488 0.9808,-2.25093 0.544,-3.9912 -0.6778,-2.70076 0.4143,-4.05364 7.4567,-9.23805 12.6792,-9.33386 28.9384,-13.02128 33.7877,-7.66274 3.394,3.75028 2.6995,8.5907 -1.8593,12.9583 -3.0988,2.9688 -3.8753,4.65549 -3.2644,7.09002 0.5603,2.23214 -0.072,4.12406 -2.0969,6.28011 -5.1835,5.51752 -2.8554,8.94875 9.4322,13.90192 5.8844,2.37199 11.0415,4.86717 11.4604,5.54485 0.4188,0.6777 3.1355,2.18202 6.0368,3.34295 2.9015,1.16093 5.0524,2.78565 4.7799,3.61049 -0.2725,0.82484 -4.0475,1.89478 -8.3888,2.37764 -4.3412,0.48287 -9.9813,1.53062 -12.5336,2.32832 -5.1379,1.60587 -31.1612,3.06226 -35.3596,1.97888 z m -268.1267,-61.99594 c -2.2612,-2.50222 -2.5026,-4.6805 -2.1996,-19.84067 l 0.3403,-17.02987 -11.2021,-3.49266 c -6.1612,-1.92096 -13.8144,-3.50084 -17.0071,-3.51086 -9.056,-0.0284 -11.8048,-1.16114 -11.8048,-4.86458 0,-7.84626 15.4341,-16.41687 29.6011,-16.43752 4.9138,-0.007 11.9136,-0.65196 15.5548,-1.43287 4.7074,-1.00957 9.6286,-1.00144 17.031,0.0281 13.419,1.8664 55.5392,14.09922 61.5446,17.8741 3.0553,1.92057 -0.9404,4.85094 -6.6146,4.85094 -2.8726,0 -7.5169,1.17016 -10.3202,2.60035 -2.8035,1.4302 -9.7903,3.82959 -15.5262,5.33199 -9.9501,2.60618 -17.3496,7.11564 -15.7973,9.62734 1.6289,2.63562 -1.4087,9.80014 -5.9579,14.05239 -5.0626,4.73223 -21.3262,15.0546 -23.7196,15.0546 -0.7602,0 -2.5254,-1.26487 -3.9224,-2.81081 z M 462.0011,476.42028 c -5.12737,-1.15643 -30.74699,-8.7104 -40,-11.79404 -5.13333,-1.71072 -13.07071,-3.33884 -17.6386,-3.61804 -4.56791,-0.2792 -8.68996,-0.89232 -9.16013,-1.36249 -2.16086,-2.16084 1.41761,-7.79872 8.33741,-13.1356 l 7.5766,-5.84344 13.04563,-0.003 c 15.96094,-0.004 17.26673,-0.87237 13.3812,-8.8988 -5.0332,-10.39719 -1.9751,-34.20736 5.40204,-42.05997 4.96373,-5.28364 8.1386,-4.00491 15.6304,6.29537 3.73366,5.13333 7.64858,9.33333 8.69981,9.33333 1.05123,0 4.86437,-3 8.47365,-6.66666 11.15468,-11.33202 17.45454,-8.65134 19.5102,8.30192 0.9899,8.16372 0.66204,8.78705 -8.48001,16.12254 -2.27645,1.8266 -2.81339,3.2538 -2.17743,5.78768 0.57999,2.31084 -0.16521,5.0985 -2.3815,8.90887 -2.29555,3.94661 -3.03399,6.81499 -2.56102,9.94784 0.60899,4.03365 1.73944,4.95177 13.50319,10.96692 13.40964,6.85673 18.89493,10.81449 21.20181,15.29756 1.34756,2.61877 0.91364,2.66985 -24.16218,2.8442 -14.04392,0.0976 -26.7344,-0.0931 -28.20107,-0.42392 z m 3961.4967,-34.24397 c -1.4076,-5.60848 2.2748,-12.10139 10.5442,-18.59175 4.1804,-3.28113 8.8815,-6.55233 10.4467,-7.26932 18.8029,-8.61347 27.0339,-14.92279 28.4039,-21.7726 0.6288,-3.14396 -0.097,-5.25684 -3.3786,-9.82527 -4.9946,-6.95497 -5.2672,-11.46066 -1.344,-22.22038 5.0995,-13.98582 16.698,-23.26383 23.9154,-19.13054 6.96,3.98602 8.4025,4.22608 14.4524,2.40534 5.1524,-1.55067 6.6066,-1.53307 10.0948,0.12213 10.8964,5.17069 13.6745,14.80617 6.4689,22.43669 -3.8677,4.09595 -3.9937,4.55752 -2.2753,8.33604 1.2065,2.65288 1.563,6.50714 1.0586,11.44444 -0.7056,6.90507 -0.5149,7.60546 2.631,9.66667 1.8653,1.22223 4.5772,2.22223 6.0264,2.22223 1.4492,0 3.0057,0.6 3.4589,1.33333 0.4532,0.73333 2.4163,1.33333 4.3623,1.33333 1.946,0 8.3605,2.33131 14.2546,5.18068 5.894,2.84938 11.7664,5.53054 13.0498,5.95815 2.3729,0.79068 3.126,5.58583 1.3129,8.36003 -0.5388,0.82437 -6.3796,1.84666 -12.9796,2.27176 -6.6,0.4251 -15.6,1.6692 -20,2.76466 -23.5587,5.86539 -27.9008,6.44694 -42.2345,5.65663 -8.6403,-0.47639 -14.4043,-0.28192 -14.6667,0.49484 -0.2376,0.70381 -5.5321,2.70628 -11.7655,4.44993 -16.9653,4.74574 -22.7461,5.99392 -32.2866,6.97139 -8.5474,0.87569 -8.6876,0.83752 -9.55,-2.59843 z M 3682.0011,277.22372 c -3.6667,-0.62217 -12.6667,-3.37781 -20,-6.12365 -8.1243,-3.04198 -15.9379,-5.06218 -20,-5.17095 -15.0152,-0.40205 -15.3333,-0.46747 -15.3333,-3.1534 0,-4.78701 1.6614,-6.89921 9.7453,-12.38884 7.3749,-5.00823 8.9555,-5.53091 18.1661,-6.00777 14.614,-0.75659 16.0886,-1.21418 16.0886,-4.9925 0,-1.77608 -0.6,-3.60005 -1.3334,-4.05328 -0.7333,-0.45322 -1.3333,-2.23673 -1.3333,-3.96334 0,-7.00211 19.8401,-16.91358 34.4356,-17.20282 9.4289,-0.18685 12.2311,1.81175 12.2311,8.7236 0,2.51023 1.1024,4.4367 3.4002,5.94234 5.139,3.36718 3.9043,7.50741 -2.7336,9.16689 -4.9358,1.23397 -5.3373,1.68108 -5.387,6 -0.067,5.83436 1.0832,6.94288 9.387,9.04655 8.846,2.241 20.8799,6.9393 23.1823,9.05096 3.3016,3.02785 0.6213,5.61509 -7.4297,7.17178 -4.2639,0.82444 -10.4526,2.43527 -13.7526,3.57962 -15.7169,5.45018 -26.1542,6.61106 -39.3333,4.37481 z"
       style="fill:url(#linearGradient988);stroke-width:1.33333;fill-opacity:1"
       id="path928" />
  </g>
</svg>
