<?xml version="1.0" encoding="UTF-8" standalone="no"?>
<svg
   xmlns:dc="http://purl.org/dc/elements/1.1/"
   xmlns:cc="http://creativecommons.org/ns#"
   xmlns:rdf="http://www.w3.org/1999/02/22-rdf-syntax-ns#"
   xmlns:svg="http://www.w3.org/2000/svg"
   xmlns="http://www.w3.org/2000/svg"
   xmlns:sodipodi="http://sodipodi.sourceforge.net/DTD/sodipodi-0.dtd"
   xmlns:inkscape="http://www.inkscape.org/namespaces/inkscape"
   sodipodi:docname="fledgling.svg"
   inkscape:version="1.0 (4035a4f, 2020-05-01)"
   id="svg8"
   version="1.1"
   viewBox="0 0 210 297"
   height="297mm"
   width="210mm">
  <defs
     id="defs2" />
  <sodipodi:namedview
     inkscape:window-maximized="0"
     inkscape:window-y="23"
     inkscape:window-x="0"
     inkscape:window-height="749"
     inkscape:window-width="1252"
     inkscape:snap-global="false"
     showgrid="false"
     inkscape:document-rotation="0"
     inkscape:current-layer="layer1"
     inkscape:document-units="mm"
     inkscape:cy="1121.755"
     inkscape:cx="1074.7459"
     inkscape:zoom="0.49497475"
     inkscape:pageshadow="2"
     inkscape:pageopacity="0.0"
     borderopacity="1.0"
     bordercolor="#666666"
     pagecolor="#ffffff"
     id="base" />
  <metadata
     id="metadata5">
    <rdf:RDF>
      <cc:Work
         rdf:about="">
        <dc:format>image/svg+xml</dc:format>
        <dc:type
           rdf:resource="http://purl.org/dc/dcmitype/StillImage" />
        <dc:title></dc:title>
      </cc:Work>
    </rdf:RDF>
  </metadata>
  <g
     id="layer1"
     inkscape:groupmode="layer"
     inkscape:label="Layer 1">
    <path
       sodipodi:nodetypes="ccsc"
       id="path833"
       d="m 37.797618,91.470237 c 17.764882,-4.535716 32.505954,13.607143 32.505954,13.607143 0,0 -2.067323,-11.323488 -1.511905,-19.654762 0.755951,-11.339284 19.654759,-23.434525 19.654759,-23.434525"
       style="fill:none;stroke:#000000;stroke-width:0.264583px;stroke-linecap:butt;stroke-linejoin:miter;stroke-opacity:1" />
    <path
       sodipodi:nodetypes="ccccccc"
       id="path839"
       d="m 115.86748,97.840309 c -9.42759,-8.560222 -21.19771,-11.114132 -28.56009,-3.947731 7.9477,-2.029201 19.80048,1.835153 19.80048,1.835153 l 10.52477,5.445919 c 0,0 2.32113,-13.746247 2.54389,-17.851663 2.8604,-7.44557 12.18865,-13.953973 18.50781,-19.228237 -21.6253,3.476183 -24.86592,15.552152 -22.81686,33.746559 z"
       style="color:#000000;font-style:normal;font-variant:normal;font-weight:normal;font-stretch:normal;font-size:medium;line-height:normal;font-family:sans-serif;font-variant-ligatures:normal;font-variant-position:normal;font-variant-caps:normal;font-variant-numeric:normal;font-variant-alternates:normal;font-variant-east-asian:normal;font-feature-settings:normal;font-variation-settings:normal;text-indent:0;text-align:start;text-decoration:none;text-decoration-line:none;text-decoration-style:solid;text-decoration-color:#000000;letter-spacing:normal;word-spacing:normal;text-transform:none;writing-mode:lr-tb;direction:ltr;text-orientation:mixed;dominant-baseline:auto;baseline-shift:baseline;text-anchor:start;white-space:normal;shape-padding:0;shape-margin:0;inline-size:0;clip-rule:nonzero;display:inline;overflow:visible;visibility:visible;opacity:1;isolation:auto;mix-blend-mode:normal;color-interpolation:sRGB;color-interpolation-filters:linearRGB;solid-color:#000000;solid-opacity:1;vector-effect:none;fill:#000000;fill-opacity:1;fill-rule:nonzero;stroke:none;stroke-width:5;stroke-linecap:butt;stroke-linejoin:round;stroke-miterlimit:4;stroke-dasharray:none;stroke-dashoffset:0;stroke-opacity:1;color-rendering:auto;image-rendering:auto;shape-rendering:auto;text-rendering:auto;enable-background:accumulate;stop-color:#000000;stop-opacity:1" />
    <path
       style="color:#000000;font-style:normal;font-variant:normal;font-weight:normal;font-stretch:normal;font-size:medium;line-height:normal;font-family:sans-serif;font-variant-ligatures:normal;font-variant-position:normal;font-variant-caps:normal;font-variant-numeric:normal;font-variant-alternates:normal;font-variant-east-asian:normal;font-feature-settings:normal;font-variation-settings:normal;text-indent:0;text-align:start;text-decoration:none;text-decoration-line:none;text-decoration-style:solid;text-decoration-color:#000000;letter-spacing:normal;word-spacing:normal;text-transform:none;writing-mode:lr-tb;direction:ltr;text-orientation:mixed;dominant-baseline:auto;baseline-shift:baseline;text-anchor:start;white-space:normal;shape-padding:0;shape-margin:0;inline-size:0;clip-rule:nonzero;display:inline;overflow:visible;visibility:visible;opacity:1;isolation:auto;mix-blend-mode:normal;color-interpolation:sRGB;color-interpolation-filters:linearRGB;solid-color:#000000;solid-opacity:1;vector-effect:none;fill:#000000;fill-opacity:1;fill-rule:nonzero;stroke:none;stroke-width:5;stroke-linecap:butt;stroke-linejoin:round;stroke-miterlimit:4;stroke-dasharray:none;stroke-dashoffset:0;stroke-opacity:1;color-rendering:auto;image-rendering:auto;shape-rendering:auto;text-rendering:auto;enable-background:accumulate;stop-color:#000000;stop-opacity:1"
       d="m 169.11618,96.328404 c -1.31125,0.605642 -21.19771,-8.751781 -28.56009,-1.58538 7.9477,-1.55673 14.2789,-1.822566 16.3042,-0.81068 l 14.49352,7.241306 c 0,0 2.32113,-13.746247 2.54389,-17.851663 2.8604,-7.44557 12.18865,-13.953973 18.50781,-19.228237 -21.6253,3.476183 -21.97808,31.629012 -23.28933,32.234654 z"
       id="path841"
       sodipodi:nodetypes="zcscccz" />
    <path
       id="path878"
       d="M 23.054688 178.07031 L 23.054688 179.07031 L 23.054688 206.79688 L 55.523438 206.79688 L 55.523438 178.07031 L 23.054688 178.07031 z M 25.054688 180.07031 L 53.523438 180.07031 L 53.523438 204.79688 L 25.054688 204.79688 L 25.054688 180.07031 z "
       style="color:#000000;font-style:normal;font-variant:normal;font-weight:normal;font-stretch:normal;font-size:medium;line-height:normal;font-family:sans-serif;font-variant-ligatures:normal;font-variant-position:normal;font-variant-caps:normal;font-variant-numeric:normal;font-variant-alternates:normal;font-variant-east-asian:normal;font-feature-settings:normal;font-variation-settings:normal;text-indent:0;text-align:start;text-decoration:none;text-decoration-line:none;text-decoration-style:solid;text-decoration-color:#000000;letter-spacing:normal;word-spacing:normal;text-transform:none;writing-mode:lr-tb;direction:ltr;text-orientation:mixed;dominant-baseline:auto;baseline-shift:baseline;text-anchor:start;white-space:normal;shape-padding:0;shape-margin:0;inline-size:0;clip-rule:nonzero;display:inline;overflow:visible;visibility:visible;isolation:auto;mix-blend-mode:normal;color-interpolation:sRGB;color-interpolation-filters:linearRGB;solid-color:#000000;solid-opacity:1;vector-effect:none;fill:#3b00ff;fill-opacity:1;fill-rule:nonzero;stroke:none;stroke-width:2;stroke-linecap:square;stroke-linejoin:miter;stroke-miterlimit:4;stroke-dasharray:none;stroke-dashoffset:0;stroke-opacity:1;paint-order:markers fill stroke;color-rendering:auto;image-rendering:auto;shape-rendering:auto;text-rendering:auto;enable-background:accumulate;stop-color:#000000;stop-opacity:1;opacity:1" />
    <path
       sodipodi:nodetypes="zcscccz"
       id="path845"
       d="m 37.61957,197.89083 c -1.31125,0.60564 -21.197708,-8.75178 -28.5600876,-1.58538 7.9476996,-1.55673 14.2788996,-1.82257 16.3041996,-0.81068 l 14.493518,7.2413 c 0,0 2.32113,-13.74624 2.54389,-17.85166 2.8604,-7.44557 12.18865,-13.95397 18.50781,-19.22824 -21.6253,3.47619 -21.97808,31.62902 -23.28933,32.23466 z"
       style="color:#000000;font-style:normal;font-variant:normal;font-weight:normal;font-stretch:normal;font-size:medium;line-height:normal;font-family:sans-serif;font-variant-ligatures:normal;font-variant-position:normal;font-variant-caps:normal;font-variant-numeric:normal;font-variant-alternates:normal;font-variant-east-asian:normal;font-feature-settings:normal;font-variation-settings:normal;text-indent:0;text-align:start;text-decoration:none;text-decoration-line:none;text-decoration-style:solid;text-decoration-color:#000000;letter-spacing:normal;word-spacing:normal;text-transform:none;writing-mode:lr-tb;direction:ltr;text-orientation:mixed;dominant-baseline:auto;baseline-shift:baseline;text-anchor:start;white-space:normal;shape-padding:0;shape-margin:0;inline-size:0;clip-rule:nonzero;display:inline;overflow:visible;visibility:visible;opacity:1;isolation:auto;mix-blend-mode:normal;color-interpolation:sRGB;color-interpolation-filters:linearRGB;solid-color:#000000;solid-opacity:1;vector-effect:none;fill:#3b00ff;fill-opacity:1;fill-rule:nonzero;stroke:none;stroke-width:5;stroke-linecap:butt;stroke-linejoin:round;stroke-miterlimit:4;stroke-dasharray:none;stroke-dashoffset:0;stroke-opacity:1;color-rendering:auto;image-rendering:auto;shape-rendering:auto;text-rendering:auto;enable-background:accumulate;stop-color:#000000;stop-opacity:1" />
    <path
       transform="scale(0.26458333)"
       d="M 325.52734 673.02148 L 325.52734 676.80078 L 325.52734 730.45312 C 328.07494 730.95488 330.59748 731.50369 333.08594 732.08789 L 333.08594 680.58008 L 394.51953 680.58008 C 395.64196 678.05023 396.84623 675.52617 398.13867 673.02148 L 325.52734 673.02148 z M 407.86523 673.02148 C 405.84136 675.50691 403.95515 678.02631 402.23047 680.58008 L 440.68359 680.58008 L 440.68359 774.03516 L 333.08594 774.03516 L 333.08594 736.28906 L 330.25781 734.87695 C 329.07274 734.28486 327.45484 733.8233 325.52734 733.46289 L 325.52734 781.59375 L 448.24219 781.59375 L 448.24219 673.02148 L 407.86523 673.02148 z "
       style="color:#000000;font-style:normal;font-variant:normal;font-weight:normal;font-stretch:normal;font-size:medium;line-height:normal;font-family:sans-serif;font-variant-ligatures:normal;font-variant-position:normal;font-variant-caps:normal;font-variant-numeric:normal;font-variant-alternates:normal;font-variant-east-asian:normal;font-feature-settings:normal;font-variation-settings:normal;text-indent:0;text-align:start;text-decoration:none;text-decoration-line:none;text-decoration-style:solid;text-decoration-color:#000000;letter-spacing:normal;word-spacing:normal;text-transform:none;writing-mode:lr-tb;direction:ltr;text-orientation:mixed;dominant-baseline:auto;baseline-shift:baseline;text-anchor:start;white-space:normal;shape-padding:0;shape-margin:0;inline-size:0;clip-rule:nonzero;display:inline;overflow:visible;visibility:visible;opacity:1;isolation:auto;mix-blend-mode:normal;color-interpolation:sRGB;color-interpolation-filters:linearRGB;solid-color:#000000;solid-opacity:1;vector-effect:none;fill:#000000;fill-opacity:1;fill-rule:nonzero;stroke:none;stroke-width:7.55906;stroke-linecap:square;stroke-linejoin:miter;stroke-miterlimit:4;stroke-dasharray:none;stroke-dashoffset:0;stroke-opacity:1;paint-order:markers fill stroke;color-rendering:auto;image-rendering:auto;shape-rendering:auto;text-rendering:auto;enable-background:accumulate;stop-color:#000000;stop-opacity:1"
       id="path866" />
    <path
       style="color:#000000;font-style:normal;font-variant:normal;font-weight:normal;font-stretch:normal;font-size:medium;line-height:normal;font-family:sans-serif;font-variant-ligatures:normal;font-variant-position:normal;font-variant-caps:normal;font-variant-numeric:normal;font-variant-alternates:normal;font-variant-east-asian:normal;font-feature-settings:normal;font-variation-settings:normal;text-indent:0;text-align:start;text-decoration:none;text-decoration-line:none;text-decoration-style:solid;text-decoration-color:#000000;letter-spacing:normal;word-spacing:normal;text-transform:none;writing-mode:lr-tb;direction:ltr;text-orientation:mixed;dominant-baseline:auto;baseline-shift:baseline;text-anchor:start;white-space:normal;shape-padding:0;shape-margin:0;inline-size:0;clip-rule:nonzero;display:inline;overflow:visible;visibility:visible;opacity:1;isolation:auto;mix-blend-mode:normal;color-interpolation:sRGB;color-interpolation-filters:linearRGB;solid-color:#000000;solid-opacity:1;vector-effect:none;fill:#5600ff;fill-opacity:1;fill-rule:nonzero;stroke:none;stroke-width:5;stroke-linecap:butt;stroke-linejoin:round;stroke-miterlimit:4;stroke-dasharray:none;stroke-dashoffset:0;stroke-opacity:1;color-rendering:auto;image-rendering:auto;shape-rendering:auto;text-rendering:auto;enable-background:accumulate;stop-color:#000000;stop-opacity:1"
       d="m 100.69518,197.89083 c -1.311253,0.60564 -21.197713,-8.75178 -28.560093,-1.58538 7.9477,-1.55673 14.2789,-1.82257 16.3042,-0.81068 l 14.493523,7.2413 c 0,0 2.32113,-13.74624 2.54389,-17.85166 2.8604,-7.44557 12.18865,-13.95397 18.50781,-19.22824 -21.6253,3.47619 -21.97808,31.62902 -23.28933,32.23466 z"
       id="path853"
       sodipodi:nodetypes="zcscccz" />
    <path
       inkscape:export-ydpi="90"
       inkscape:export-xdpi="90"
       transform="scale(0.26458333)"
       d="M 585.39844 698.27539 L 585.39844 702.05469 L 585.39844 735.16406 C 588.04207 735.9071 590.52917 736.64909 592.95703 737.38281 L 592.95703 705.83398 L 626.03711 705.83398 C 626.72125 703.36259 627.4567 700.84575 628.27344 698.27539 L 585.39844 698.27539 z M 634.80273 698.27539 C 634.60465 700.45656 634.31888 703.03271 633.97852 705.83398 L 672.00977 705.83398 L 672.00977 774.03516 L 592.95703 774.03516 L 592.95703 746.00977 L 585.39844 742.23242 L 585.39844 781.59375 L 679.57031 781.59375 L 679.57031 698.27539 L 634.80273 698.27539 z "
       style="color:#000000;font-style:normal;font-variant:normal;font-weight:normal;font-stretch:normal;font-size:medium;line-height:normal;font-family:sans-serif;font-variant-ligatures:normal;font-variant-position:normal;font-variant-caps:normal;font-variant-numeric:normal;font-variant-alternates:normal;font-variant-east-asian:normal;font-feature-settings:normal;font-variation-settings:normal;text-indent:0;text-align:start;text-decoration:none;text-decoration-line:none;text-decoration-style:solid;text-decoration-color:#000000;letter-spacing:normal;word-spacing:normal;text-transform:none;writing-mode:lr-tb;direction:ltr;text-orientation:mixed;dominant-baseline:auto;baseline-shift:baseline;text-anchor:start;white-space:normal;shape-padding:0;shape-margin:0;inline-size:0;clip-rule:nonzero;display:inline;overflow:visible;visibility:visible;opacity:1;isolation:auto;mix-blend-mode:normal;color-interpolation:sRGB;color-interpolation-filters:linearRGB;solid-color:#000000;solid-opacity:1;vector-effect:none;fill:#008080;fill-opacity:1;fill-rule:nonzero;stroke:none;stroke-width:7.55906;stroke-linecap:square;stroke-linejoin:miter;stroke-miterlimit:4;stroke-dasharray:none;stroke-dashoffset:0;stroke-opacity:1;paint-order:markers fill stroke;color-rendering:auto;image-rendering:auto;shape-rendering:auto;text-rendering:auto;enable-background:accumulate;stop-color:#000000;stop-opacity:1"
       id="path872" />
    <path
       inkscape:export-ydpi="90"
       inkscape:export-xdpi="90"
       sodipodi:nodetypes="zcscccz"
       id="path861"
       d="m 164.30533,197.89083 c -1.31126,0.60564 -21.19772,-8.75178 -28.5601,-1.58538 7.9477,-1.55673 14.2789,-1.82257 16.3042,-0.81068 l 14.49353,7.2413 c 0,0 2.32113,-13.74624 2.54389,-17.85166 2.8604,-7.44557 12.18865,-13.95397 18.50781,-19.22824 -21.6253,3.47619 -21.97808,31.62902 -23.28933,32.23466 z"
       style="color:#000000;font-style:normal;font-variant:normal;font-weight:normal;font-stretch:normal;font-size:medium;line-height:normal;font-family:sans-serif;font-variant-ligatures:normal;font-variant-position:normal;font-variant-caps:normal;font-variant-numeric:normal;font-variant-alternates:normal;font-variant-east-asian:normal;font-feature-settings:normal;font-variation-settings:normal;text-indent:0;text-align:start;text-decoration:none;text-decoration-line:none;text-decoration-style:solid;text-decoration-color:#000000;letter-spacing:normal;word-spacing:normal;text-transform:none;writing-mode:lr-tb;direction:ltr;text-orientation:mixed;dominant-baseline:auto;baseline-shift:baseline;text-anchor:start;white-space:normal;shape-padding:0;shape-margin:0;inline-size:0;clip-rule:nonzero;display:inline;overflow:visible;visibility:visible;opacity:1;isolation:auto;mix-blend-mode:normal;color-interpolation:sRGB;color-interpolation-filters:linearRGB;solid-color:#000000;solid-opacity:1;vector-effect:none;fill:#008080;fill-opacity:1;fill-rule:nonzero;stroke:none;stroke-width:5;stroke-linecap:butt;stroke-linejoin:round;stroke-miterlimit:4;stroke-dasharray:none;stroke-dashoffset:0;stroke-opacity:1;color-rendering:auto;image-rendering:auto;shape-rendering:auto;text-rendering:auto;enable-background:accumulate;stop-color:#000000;stop-opacity:1" />
    <circle
       inkscape:export-ydpi="90"
       inkscape:export-xdpi="90"
       r="16.630953"
       cy="262.69345"
       cx="133.4256"
       id="path880"
       style="fill:none;fill-opacity:1;stroke:#008080;stroke-width:2;stroke-linecap:square;stroke-linejoin:miter;stroke-miterlimit:4;stroke-dasharray:none;stroke-opacity:1;paint-order:markers fill stroke" />
    <path
       inkscape:export-ydpi="90"
       inkscape:export-xdpi="90"
       transform="scale(0.26458333)"
       d="M 504.16406 1003.082 A 57.578695 26.769043 0 0 0 448.88672 1022.5527 A 62.857145 62.857145 0 0 0 448.88672 1022.5547 A 62.857145 62.857145 0 0 0 504.28516 1055.7148 A 62.857145 62.857145 0 0 0 559.68359 1022.5547 A 57.578695 26.769043 0 0 0 504.28516 1003.082 A 57.578695 26.769043 0 0 0 504.16406 1003.082 z "
       style="fill:#008080;fill-opacity:1;stroke:none;stroke-width:7.55906;stroke-linecap:square;stroke-linejoin:miter;stroke-miterlimit:4;stroke-dasharray:none;stroke-opacity:1;paint-order:markers fill stroke"
       id="path886" />
    <ellipse
       inkscape:export-ydpi="90"
       inkscape:export-xdpi="90"
       ry="6.0135641"
       rx="5.6126599"
       cy="258.04874"
       cx="133.4256"
       id="path888"
       style="fill:#008080;fill-opacity:1;stroke:none;stroke-width:2;stroke-linecap:square;stroke-linejoin:miter;stroke-miterlimit:4;stroke-dasharray:none;stroke-opacity:1;paint-order:markers fill stroke" />
    <path
       inkscape:export-ydpi="90"
       inkscape:export-xdpi="90"
       transform="scale(0.26458333)"
       d="M 1725.4023 780.86914 C 1725.4023 780.86914 1749.0767 856.04169 1760.6348 924.38477 C 1766.6575 959.9973 1772.8253 1007.0399 1777.6406 1067.5918 C 1769.1442 1035.225 1759.629 1003.4369 1748.1914 973.62891 C 1737.17 920.1977 1723.521 867.43741 1703.9023 816.06836 C 1703.9023 816.06836 1711.2206 855.42742 1723.0664 918.09375 C 1709.4018 892.67893 1693.4708 869.89142 1674.498 850.95312 C 1674.498 850.95312 1723.3778 937.53536 1731.5156 962.67773 C 1744.528 1031.1619 1761.325 1118.6909 1780.166 1215.1016 C 1734.9079 1067.0791 1658.7215 926.97727 1541.8203 824.67969 C 1541.8203 824.67969 1715.636 1016.0651 1778.0605 1258.6504 L 1800.7422 1258.6504 C 1800.3346 1249.0165 1799.9333 1239.3102 1799.5488 1229.459 C 1801.7211 1238.8471 1803.991 1248.7654 1806.2539 1258.6504 L 1823.6641 1258.6504 C 1813.8351 1222.6814 1805.1397 1183.2925 1795.9395 1143.1562 C 1789.6675 1014.6465 1776.6419 880.12603 1725.4023 780.86914 z M 1422.1562 818.67578 C 1422.1562 818.67578 1428.3805 852.17223 1438.709 906.89844 C 1430.4348 900.89225 1421.8387 895.26174 1413.6562 889.28125 C 1413.6562 889.28125 1428.4414 905.83529 1441.2637 920.41406 C 1447.1358 951.47999 1454.005 987.64602 1461.9902 1029.3789 C 1431.8518 974.14034 1395.4174 922.84142 1347.8887 880.58203 C 1350.042 882.64111 1353.1309 885.79569 1357.3223 890.58789 C 1366.344 900.90286 1379.8821 918.28214 1397.5547 946.23242 C 1418.2497 978.96283 1443.5845 1025.8753 1474.1855 1092.9258 C 1480.9499 1128.0343 1488.2636 1165.6946 1495.8398 1204.5234 C 1486.6967 1195.9801 1477.1681 1188.6603 1468.0234 1184.2227 C 1428.0763 1117.8939 1380.879 1055.8314 1325.9961 1001.9277 C 1315.9161 981.90244 1306.303 967.92104 1297.9941 964.17773 C 1297.9941 964.17773 1301.4744 971.40149 1307.123 983.99609 C 1267.8873 947.95566 1224.9382 916.0413 1178.127 889.55664 C 1178.127 889.55664 1245.1598 938.38313 1323.3262 1021.5703 C 1345.6156 1075.1835 1378.1794 1161.3651 1402.3496 1258.6504 L 1413.8398 1258.6504 C 1405.4321 1227.7043 1375.6577 1121.9723 1345.1816 1045.4355 C 1397.2193 1103.7753 1451.8046 1176.1807 1493.4102 1258.6504 L 1517.6973 1258.6504 C 1515.9866 1250.9223 1514.3403 1243.1826 1512.7461 1235.4336 C 1518.5472 1242.7246 1524.004 1250.5165 1528.7207 1258.6504 L 1540.8535 1258.6504 C 1534.2742 1248.5495 1522.7852 1232.9327 1509.2852 1218.1758 C 1504.2536 1192.4381 1499.7546 1166.6127 1495.418 1140.7734 C 1510.3907 1175.4269 1526.493 1214.568 1543.7578 1258.6504 L 1560.2305 1258.6504 C 1536.7085 1197.8771 1513.3164 1133.8445 1484.1191 1072.7773 C 1476.6881 1028.4238 1468.807 984.23735 1458.6484 940.61328 C 1466.1575 950.04596 1477.072 965.43674 1490.8691 989.49023 C 1515.2215 1031.9452 1544.7781 1101.3549 1582.7617 1211.8164 C 1584.1639 1226.4836 1585.4879 1242.102 1586.7129 1258.6504 L 1615.4902 1258.6504 C 1608.5253 1237.6213 1601.7074 1217.7995 1595.0645 1199.2129 C 1588.019 1133.1702 1576.5609 1068.9854 1556.3555 1012.3145 C 1578.1879 1055.0017 1604.0565 1118.3082 1635.8438 1210.4648 C 1639.3967 1225.7087 1643.1157 1241.8598 1646.9512 1258.6504 L 1669.0703 1258.6504 C 1663.045 1240.5037 1657.1307 1223.2589 1651.3457 1206.9453 C 1626.0811 1100.6291 1603.967 977.18479 1549.5801 892.44531 C 1558.5935 902.8657 1571.8026 919.96824 1588.9414 947.07422 C 1620.1678 996.46061 1661.9527 1078.0977 1716.4746 1212.5996 C 1720.6174 1227.9497 1724.7669 1243.3 1728.9414 1258.6504 L 1761.0762 1258.6504 C 1750.779 1216.0664 1712.4095 1062.2233 1682.1074 1043.7422 C 1682.1074 1043.7422 1722.2531 1122.2134 1748.6289 1251.7578 C 1740.9833 1231.9159 1733.322 1211.7901 1725.4473 1191.5234 C 1707.0758 1120.4329 1683.0432 1049.8016 1649.5312 981.58398 C 1661.1031 1016.7593 1671.7292 1051.934 1681.8457 1087.1094 C 1647.9324 1013.6397 1606.3407 943.81131 1546.9355 888.39062 C 1537.2333 873.7792 1526.5282 860.37761 1514.623 848.49414 C 1514.623 848.49414 1564.6395 937.07872 1571.9297 961.08594 C 1580.4079 989.00546 1592.1747 1031.3832 1608.0586 1094.9863 C 1587.6736 1047.0379 1569.7499 1011.652 1554.9395 985.83203 C 1540.5452 960.73774 1529.0861 944.64957 1521.1387 934.75586 C 1506.9364 916.4688 1486.3577 904.76418 1467.8945 891.26953 C 1467.8945 891.26953 1504.7802 932.49508 1512.3008 941.85742 C 1519.0712 950.28584 1528.8009 963.83794 1540.9883 984.43359 C 1548.9239 1012.2245 1561.298 1058.7175 1568.7305 1102.666 C 1570.9081 1115.5424 1573.1046 1129.917 1575.25 1145.875 C 1545.8653 1069.9377 1520.5049 1018.3689 1500.7012 983.84375 C 1486.307 958.74946 1474.8478 942.66129 1466.9004 932.76758 C 1462.817 927.50976 1458.1955 922.80802 1453.2598 918.43945 C 1444.7343 884.74544 1434.6643 851.42647 1422.1562 818.67578 z M 1347.8887 880.58203 C 1345.4071 878.20903 1344.1836 877.30859 1344.1836 877.30859 C 1345.4297 878.39102 1346.6575 879.48738 1347.8887 880.58203 z M 1208.166 966.57227 C 1208.166 966.57227 1271.4345 1097.097 1311.8809 1258.6504 L 1324.5996 1258.6504 C 1323.5807 1232.7682 1322.4012 1207.3034 1319.9434 1182.4258 C 1330.3049 1203.0859 1341.6656 1228.2474 1353.5645 1258.6504 L 1365.5332 1258.6504 C 1350.4955 1221.8613 1336.8826 1184.4931 1316.2246 1152.2539 C 1309.1964 1105.7071 1295.875 1061.405 1268.5547 1020.2266 C 1270.511 1023.3285 1278.9217 1037.8204 1288.2949 1071.1719 C 1292.7333 1086.9641 1297.3101 1106.9619 1301.373 1131.6797 C 1294.1207 1122.7852 1286.0778 1114.4567 1276.9883 1106.8672 C 1253.9937 1039.6162 1227.5465 975.30352 1208.166 966.57227 z M 1604.9375 979.4043 C 1635.5594 1072.4863 1659.6087 1165.5683 1684.9434 1258.6504 L 1697.0684 1258.6504 C 1677.0756 1164.3617 1649.3277 1069.766 1604.9375 979.4043 z M 1152.002 1023.0137 C 1152.002 1023.0137 1161.4576 1036.4973 1172.1699 1074.6133 C 1175.7394 1087.314 1179.3972 1102.7569 1182.8086 1121.1465 C 1174.3892 1108.8861 1164.6332 1097.6694 1153.0371 1087.9785 C 1153.0371 1087.9785 1157.5455 1093.2924 1165.9375 1108.3965 C 1161.4618 1104.4313 1156.7306 1100.6452 1151.707 1097.0664 C 1151.707 1097.0664 1161.6571 1106.4523 1178.3496 1132.8613 C 1178.5158 1133.1242 1178.6919 1133.4154 1178.8594 1133.6816 C 1181.7419 1139.7417 1184.8312 1146.5064 1188.1152 1154.0508 C 1192.142 1183.0009 1195.3891 1217.5799 1197.0371 1258.6504 L 1208.3398 1258.6504 C 1207.4725 1237.0322 1206.4616 1215.7079 1204.6465 1194.7852 C 1211.6241 1213.1024 1219.1445 1234.2442 1227.123 1258.6504 L 1251.3555 1258.6504 C 1235.3637 1219.673 1221.1467 1179.9316 1198.5703 1146.248 C 1191.1481 1102.9051 1177.7508 1061.583 1152.002 1023.0137 z M 1217.2363 1041.082 C 1217.2363 1041.082 1259.3644 1123.4158 1285.6621 1258.6504 L 1296.8516 1258.6504 C 1287.687 1220.5724 1248.2419 1059.9923 1217.2363 1041.082 z M 1363.4121 1086.541 C 1363.4121 1086.541 1370.9128 1095.3412 1384.6426 1122.8008 C 1397.7387 1148.9931 1416.1864 1191.8342 1437.9609 1258.6504 L 1451.084 1258.6504 C 1429.243 1198.5209 1413.4417 1128.351 1363.4121 1086.541 z M 1279.6055 1114.5547 C 1283.4188 1119.7276 1287.9928 1126.3391 1293.2363 1134.6348 C 1296.7689 1140.2237 1300.6032 1146.6103 1304.666 1153.7559 C 1307.1161 1171.8741 1309.2661 1192.0919 1310.9062 1214.7344 C 1302.5978 1186.2729 1291.6857 1150.3983 1279.6055 1114.5547 z M 1775.4121 1127.7363 C 1777.95 1138.124 1780.563 1148.9056 1783.291 1160.2988 C 1783.5472 1166.1049 1783.7917 1171.9998 1784.0215 1177.9883 C 1781.036 1161.2522 1778.1997 1144.4948 1775.4121 1127.7363 z M 1065.5234 1178.4082 C 1065.5234 1178.4082 1115.3854 1213.247 1141.0664 1258.6504 L 1153.291 1258.6504 C 1139.0961 1236.3874 1096.9581 1181.8654 1065.5234 1178.4082 z M 1475.7129 1197.2031 C 1482.7012 1203.293 1490.6757 1210.7175 1498.7285 1219.2832 C 1500.7464 1229.6071 1502.7431 1239.8349 1504.8047 1250.3418 C 1495.5947 1232.4014 1485.9 1214.6658 1475.7129 1197.2031 z "
       style="color:#000000;font-style:normal;font-variant:normal;font-weight:normal;font-stretch:normal;font-size:medium;line-height:normal;font-family:sans-serif;font-variant-ligatures:normal;font-variant-position:normal;font-variant-caps:normal;font-variant-numeric:normal;font-variant-alternates:normal;font-variant-east-asian:normal;font-feature-settings:normal;font-variation-settings:normal;text-indent:0;text-align:start;text-decoration:none;text-decoration-line:none;text-decoration-style:solid;text-decoration-color:#000000;letter-spacing:normal;word-spacing:normal;text-transform:none;writing-mode:lr-tb;direction:ltr;text-orientation:mixed;dominant-baseline:auto;baseline-shift:baseline;text-anchor:start;white-space:normal;shape-padding:0;shape-margin:0;inline-size:0;clip-rule:nonzero;display:inline;overflow:visible;visibility:visible;opacity:1;isolation:auto;mix-blend-mode:normal;color-interpolation:sRGB;color-interpolation-filters:linearRGB;solid-color:#000000;solid-opacity:1;vector-effect:none;fill:#008080;fill-opacity:1;fill-rule:nonzero;stroke:none;stroke-width:11.3386;stroke-linecap:butt;stroke-linejoin:miter;stroke-miterlimit:4;stroke-dasharray:none;stroke-dashoffset:0;stroke-opacity:1;color-rendering:auto;image-rendering:auto;shape-rendering:auto;text-rendering:auto;enable-background:accumulate;stop-color:#000000;stop-opacity:1"
       id="path923" />
  </g>
</svg>
